<?xml version="1.0" encoding="utf-8" ?>
<svg baseProfile="full" height="256" version="1.1" width="256" xmlns="http://www.w3.org/2000/svg" xmlns:ev="http://www.w3.org/2001/xml-events" xmlns:xlink="http://www.w3.org/1999/xlink"><defs /><rect fill="pink" height="100%" width="100%" x="0" y="0" /><rect fill="rgb(0,0,0)" height="256.0" opacity="1.0" transform="rotate(0.0,128.0,128.0)" width="256.0" x="0.0" y="0.0" /><rect fill="rgb(0,0,0)" height="250.1818181818182" opacity="1.0" transform="rotate(1.1201802350481196,128.0,128.0)" width="250.1818181818182" x="2.9090909090909065" y="2.9090909090909065" /><rect fill="rgb(11,6,0)" height="244.36363636363637" opacity="1.0" transform="rotate(2.422611093046965,128.0,128.0)" width="244.36363636363637" x="5.818181818181813" y="5.818181818181813" /><rect fill="rgb(0,0,0)" height="238.54545454545456" opacity="1.0" transform="rotate(3.8391852566632294,128.0,128.0)" width="238.54545454545456" x="8.72727272727272" y="8.72727272727272" /><rect fill="rgb(23,13,0)" height="232.72727272727272" opacity="1.0" transform="rotate(5.341584879249083,128.0,128.0)" width="232.72727272727272" x="11.63636363636364" y="11.63636363636364" /><rect fill="rgb(0,0,0)" height="226.9090909090909" opacity="1.0" transform="rotate(6.913684033052147,128.0,128.0)" width="226.9090909090909" x="14.545454545454547" y="14.545454545454547" /><rect fill="rgb(34,34,34)" height="221.0909090909091" opacity="1.0" transform="rotate(8.54491459823247,128.0,128.0)" width="221.0909090909091" x="17.454545454545453" y="17.454545454545453" /><rect fill="rgb(0,0,0)" height="215.27272727272728" opacity="1.0" transform="rotate(10.227753594596411,128.0,128.0)" width="215.27272727272728" x="20.36363636363636" y="20.36363636363636" /><rect fill="rgb(46,27,0)" height="209.45454545454544" opacity="1.0" transform="rotate(11.95654251143357,128.0,128.0)" width="209.45454545454544" x="23.27272727272728" y="23.27272727272728" /><rect fill="rgb(0,0,0)" height="203.63636363636363" opacity="1.0" transform="rotate(13.726853804262634,128.0,128.0)" width="203.63636363636363" x="26.181818181818187" y="26.181818181818187" /><rect fill="rgb(57,0,0)" height="197.8181818181818" opacity="1.0" transform="rotate(15.535118459484728,128.0,128.0)" width="197.8181818181818" x="29.090909090909093" y="29.090909090909093" /><rect fill="rgb(0,0,0)" height="192.0" opacity="1.0" transform="rotate(17.378391811585775,128.0,128.0)" width="192.0" x="32.0" y="32.0" /><rect fill="rgb(69,69,69)" height="186.1818181818182" opacity="1.0" transform="rotate(19.254198470527186,128.0,128.0)" width="186.1818181818182" x="34.90909090909091" y="34.90909090909091" /><rect fill="rgb(0,0,0)" height="180.36363636363637" opacity="1.0" transform="rotate(21.160425320401522,128.0,128.0)" width="180.36363636363637" x="37.81818181818181" y="37.81818181818181" /><rect fill="rgb(81,48,0)" height="174.54545454545456" opacity="1.0" transform="rotate(23.095245167821624,128.0,128.0)" width="174.54545454545456" x="40.72727272727272" y="40.72727272727272" /><rect fill="rgb(0,0,0)" height="168.72727272727272" opacity="1.0" transform="rotate(25.057060718392282,128.0,128.0)" width="168.72727272727272" x="43.63636363636364" y="43.63636363636364" /><rect fill="rgb(92,55,0)" height="162.9090909090909" opacity="1.0" transform="rotate(27.044462487415483,128.0,128.0)" width="162.9090909090909" x="46.54545454545455" y="46.54545454545455" /><rect fill="rgb(0,0,0)" height="157.0909090909091" opacity="1.0" transform="rotate(29.056196533157458,128.0,128.0)" width="157.0909090909091" x="49.45454545454545" y="49.45454545454545" /><rect fill="rgb(104,104,104)" height="151.27272727272725" opacity="1.0" transform="rotate(31.09113928296892,128.0,128.0)" width="151.27272727272725" x="52.363636363636374" y="52.363636363636374" /><rect fill="rgb(0,0,0)" height="145.45454545454544" opacity="1.0" transform="rotate(33.148277589489155,128.0,128.0)" width="145.45454545454544" x="55.27272727272728" y="55.27272727272728" /><rect fill="rgb(115,0,0)" height="139.63636363636363" opacity="1.0" transform="rotate(35.22669271490619,128.0,128.0)" width="139.63636363636363" x="58.18181818181819" y="58.18181818181819" /><rect fill="rgb(0,0,0)" height="133.8181818181818" opacity="1.0" transform="rotate(37.3255473137667,128.0,128.0)" width="133.8181818181818" x="61.09090909090909" y="61.09090909090909" /><rect fill="rgb(127,76,0)" height="128.0" opacity="1.0" transform="rotate(39.44407473821982,128.0,128.0)" width="128.0" x="64.0" y="64.0" /><rect fill="rgb(0,0,0)" height="122.18181818181819" opacity="1.0" transform="rotate(41.58157016559038,128.0,128.0)" width="122.18181818181819" x="66.9090909090909" y="66.9090909090909" /><rect fill="rgb(139,139,139)" height="116.36363636363637" opacity="1.0" transform="rotate(43.7373831727582,128.0,128.0)" width="116.36363636363637" x="69.81818181818181" y="69.81818181818181" /><rect fill="rgb(0,0,0)" height="110.54545454545453" opacity="1.0" transform="rotate(45.9109114715039,128.0,128.0)" width="110.54545454545453" x="72.72727272727273" y="72.72727272727273" /><rect fill="rgb(150,90,0)" height="104.72727272727272" opacity="1.0" transform="rotate(48.101595584539666,128.0,128.0)" width="104.72727272727272" x="75.63636363636364" y="75.63636363636364" /><rect fill="rgb(0,0,0)" height="98.9090909090909" opacity="1.0" transform="rotate(50.30891429053994,128.0,128.0)" width="98.9090909090909" x="78.54545454545455" y="78.54545454545455" /><rect fill="rgb(162,97,0)" height="93.0909090909091" opacity="1.0" transform="rotate(52.53238070297084,128.0,128.0)" width="93.0909090909091" x="81.45454545454545" y="81.45454545454545" /><rect fill="rgb(0,0,0)" height="87.27272727272728" opacity="1.0" transform="rotate(54.77153887523166,128.0,128.0)" width="87.27272727272728" x="84.36363636363636" y="84.36363636363636" /><rect fill="rgb(173,173,173)" height="81.45454545454544" opacity="1.0" transform="rotate(57.02596084590068,128.0,128.0)" width="81.45454545454544" x="87.27272727272728" y="87.27272727272728" /><rect fill="rgb(0,0,0)" height="75.63636363636363" opacity="1.0" transform="rotate(59.29524405438001,128.0,128.0)" width="75.63636363636363" x="90.18181818181819" y="90.18181818181819" /><rect fill="rgb(185,111,0)" height="69.81818181818181" opacity="1.0" transform="rotate(61.579009070151066,128.0,128.0)" width="69.81818181818181" x="93.0909090909091" y="93.0909090909091" /><rect fill="rgb(0,0,0)" height="64.0" opacity="1.0" transform="rotate(63.87689758904857,128.0,128.0)" width="64.0" x="96.0" y="96.0" /><rect fill="rgb(197,118,0)" height="58.18181818181819" opacity="1.0" transform="rotate(66.18857065807534,128.0,128.0)" width="58.18181818181819" x="98.9090909090909" y="98.9090909090909" /><rect fill="rgb(0,0,0)" height="52.363636363636346" opacity="1.0" transform="rotate(68.51370709678596,128.0,128.0)" width="52.363636363636346" x="101.81818181818183" y="101.81818181818183" /><rect fill="rgb(208,208,208)" height="46.54545454545453" opacity="1.0" transform="rotate(70.85200208851964,128.0,128.0)" width="46.54545454545453" x="104.72727272727273" y="104.72727272727273" /><rect fill="rgb(0,0,0)" height="40.72727272727272" opacity="1.0" transform="rotate(73.20316591903047,128.0,128.0)" width="40.72727272727272" x="107.63636363636364" y="107.63636363636364" /><rect fill="rgb(220,132,0)" height="34.90909090909091" opacity="1.0" transform="rotate(75.56692284355476,128.0,128.0)" width="34.90909090909091" x="110.54545454545455" y="110.54545454545455" /><rect fill="rgb(0,0,0)" height="29.090909090909093" opacity="1.0" transform="rotate(77.94301006622459,128.0,128.0)" width="29.090909090909093" x="113.45454545454545" y="113.45454545454545" /><rect fill="rgb(231,0,0)" height="23.272727272727252" opacity="1.0" transform="rotate(80.3311768181117,128.0,128.0)" width="23.272727272727252" x="116.36363636363637" y="116.36363636363637" /><rect fill="rgb(0,0,0)" height="17.45454545454544" opacity="1.0" transform="rotate(82.73118352215867,128.0,128.0)" width="17.45454545454544" x="119.27272727272728" y="119.27272727272728" /><rect fill="rgb(243,243,243)" height="11.636363636363626" opacity="1.0" transform="rotate(85.1428010349036,128.0,128.0)" width="11.636363636363626" x="122.18181818181819" y="122.18181818181819" /><rect fill="rgb(0,0,0)" height="5.818181818181813" opacity="1.0" transform="rotate(87.56580995628737,128.0,128.0)" width="5.818181818181813" x="125.0909090909091" y="125.0909090909091" /><rect fill="rgb(255,153,0)" height="0.0" opacity="1.0" transform="rotate(90.0,128.0,128.0)" width="0.0" x="128.0" y="128.0" /></svg>