<?xml version="1.0" encoding="utf-8" ?>
<svg baseProfile="full" height="256" version="1.1" width="256" xmlns="http://www.w3.org/2000/svg" xmlns:ev="http://www.w3.org/2001/xml-events" xmlns:xlink="http://www.w3.org/1999/xlink"><defs /><rect fill="black" height="100%" width="100%" x="0" y="0" /><rect fill="rgb(255,0,0)" height="256.0" opacity="0.0" transform="rotate(0.0,128.0,128.0)" width="256.0" x="0.0" y="0.0" /><rect fill="rgb(0,0,0)" height="242.5263157894737" opacity="0.05263157894736842" transform="rotate(2.859330949758614,128.0,128.0)" width="242.5263157894737" x="6.73684210526315" y="6.73684210526315" /><rect fill="rgb(255,0,0)" height="229.05263157894737" opacity="0.10526315789473684" transform="rotate(6.327132156487393,128.0,128.0)" width="229.05263157894737" x="13.473684210526315" y="13.473684210526315" /><rect fill="rgb(0,0,0)" height="215.57894736842104" opacity="0.15789473684210525" transform="rotate(10.137994118109395,128.0,128.0)" width="215.57894736842104" x="20.21052631578948" y="20.21052631578948" /><rect fill="rgb(255,0,0)" height="202.10526315789474" opacity="0.21052631578947367" transform="rotate(14.199163044094746,128.0,128.0)" width="202.10526315789474" x="26.94736842105263" y="26.94736842105263" /><rect fill="rgb(0,0,0)" height="188.63157894736844" opacity="0.2631578947368421" transform="rotate(18.46056266048805,128.0,128.0)" width="188.63157894736844" x="33.68421052631578" y="33.68421052631578" /><rect fill="rgb(255,0,0)" height="175.1578947368421" opacity="0.3157894736842105" transform="rotate(22.89028261297362,128.0,128.0)" width="175.1578947368421" x="40.421052631578945" y="40.421052631578945" /><rect fill="rgb(0,0,0)" height="161.68421052631578" opacity="0.3684210526315789" transform="rotate(27.466002857319822,128.0,128.0)" width="161.68421052631578" x="47.15789473684211" y="47.15789473684211" /><rect fill="rgb(255,0,0)" height="148.21052631578948" opacity="0.42105263157894735" transform="rotate(32.17113720184694,128.0,128.0)" width="148.21052631578948" x="53.89473684210526" y="53.89473684210526" /><rect fill="rgb(0,0,0)" height="134.73684210526318" opacity="0.47368421052631576" transform="rotate(36.99282243054573,128.0,128.0)" width="134.73684210526318" x="60.63157894736841" y="60.63157894736841" /><rect fill="rgb(255,0,0)" height="121.26315789473685" opacity="0.5263157894736842" transform="rotate(41.920759897938254,128.0,128.0)" width="121.26315789473685" x="67.36842105263158" y="67.36842105263158" /><rect fill="rgb(0,0,0)" height="107.78947368421052" opacity="0.5789473684210527" transform="rotate(46.94649817159264,128.0,128.0)" width="107.78947368421052" x="74.10526315789474" y="74.10526315789474" /><rect fill="rgb(255,0,0)" height="94.31578947368422" opacity="0.631578947368421" transform="rotate(52.06296363563232,128.0,128.0)" width="94.31578947368422" x="80.84210526315789" y="80.84210526315789" /><rect fill="rgb(0,0,0)" height="80.84210526315792" opacity="0.6842105263157894" transform="rotate(57.26413969155549,128.0,128.0)" width="80.84210526315792" x="87.57894736842104" y="87.57894736842104" /><rect fill="rgb(255,0,0)" height="67.36842105263159" opacity="0.7368421052631579" transform="rotate(62.54483964586481,128.0,128.0)" width="67.36842105263159" x="94.3157894736842" y="94.3157894736842" /><rect fill="rgb(0,0,0)" height="53.89473684210526" opacity="0.7894736842105263" transform="rotate(67.9005411606178,128.0,128.0)" width="53.89473684210526" x="101.05263157894737" y="101.05263157894737" /><rect fill="rgb(255,0,0)" height="40.42105263157896" opacity="0.8421052631578947" transform="rotate(73.32726257525859,128.0,128.0)" width="40.42105263157896" x="107.78947368421052" y="107.78947368421052" /><rect fill="rgb(0,0,0)" height="26.94736842105266" opacity="0.894736842105263" transform="rotate(78.82146854849466,128.0,128.0)" width="26.94736842105266" x="114.52631578947367" y="114.52631578947367" /><rect fill="rgb(255,0,0)" height="13.47368421052633" opacity="0.9473684210526315" transform="rotate(84.37999675060742,128.0,128.0)" width="13.47368421052633" x="121.26315789473684" y="121.26315789473684" /><rect fill="rgb(0,0,0)" height="0.0" opacity="1.0" transform="rotate(90.0,128.0,128.0)" width="0.0" x="128.0" y="128.0" /></svg>