<?xml version="1.0" encoding="utf-8" ?>
<svg baseProfile="full" height="256" version="1.1" width="256" xmlns="http://www.w3.org/2000/svg" xmlns:ev="http://www.w3.org/2001/xml-events" xmlns:xlink="http://www.w3.org/1999/xlink"><defs /><rect fill="pink" height="100%" width="100%" x="0" y="0" /><rect fill="rgb(15,144,153)" height="300.0" opacity="1.0" transform="rotate(0.0,128.0,128.0)" width="300.0" x="-22.0" y="-22.0" /><rect fill="rgb(14,140,151)" height="295.6521739130435" opacity="0.9855072463768116" transform="rotate(1.373484637917834,128.0,128.0)" width="295.6521739130435" x="-19.82608695652175" y="-19.82608695652175" /><rect fill="rgb(14,136,149)" height="291.30434782608694" opacity="0.9710144927536232" transform="rotate(2.929758443017731,128.0,128.0)" width="291.30434782608694" x="-17.65217391304347" y="-17.65217391304347" /><rect fill="rgb(14,132,147)" height="286.95652173913044" opacity="0.9565217391304348" transform="rotate(4.608531727396476,128.0,128.0)" width="286.95652173913044" x="-15.478260869565219" y="-15.478260869565219" /><rect fill="rgb(13,128,145)" height="282.60869565217394" opacity="0.9420289855072463" transform="rotate(6.381706967042473,128.0,128.0)" width="282.60869565217394" x="-13.304347826086968" y="-13.304347826086968" /><rect fill="rgb(13,124,143)" height="278.2608695652174" opacity="0.927536231884058" transform="rotate(8.232560520256332,128.0,128.0)" width="278.2608695652174" x="-11.130434782608688" y="-11.130434782608688" /><rect fill="rgb(12,120,141)" height="273.9130434782609" opacity="0.9130434782608696" transform="rotate(10.1498594696494,128.0,128.0)" width="273.9130434782609" x="-8.956521739130437" y="-8.956521739130437" /><rect fill="rgb(12,116,140)" height="269.5652173913044" opacity="0.8985507246376812" transform="rotate(12.125479630362324,128.0,128.0)" width="269.5652173913044" x="-6.782608695652186" y="-6.782608695652186" /><rect fill="rgb(12,113,138)" height="265.2173913043478" opacity="0.8840579710144928" transform="rotate(14.153241799001195,128.0,128.0)" width="265.2173913043478" x="-4.608695652173907" y="-4.608695652173907" /><rect fill="rgb(11,109,136)" height="260.8695652173913" opacity="0.8695652173913043" transform="rotate(16.228270836265956,128.0,128.0)" width="260.8695652173913" x="-2.434782608695656" y="-2.434782608695656" /><rect fill="rgb(11,105,134)" height="256.52173913043475" opacity="0.855072463768116" transform="rotate(18.34661171300699,128.0,128.0)" width="256.52173913043475" x="-0.2608695652173765" y="-0.2608695652173765" /><rect fill="rgb(11,102,132)" height="252.17391304347825" opacity="0.8405797101449275" transform="rotate(20.50498460914382,128.0,128.0)" width="252.17391304347825" x="1.9130434782608745" y="1.9130434782608745" /><rect fill="rgb(10,98,130)" height="247.82608695652175" opacity="0.8260869565217391" transform="rotate(22.700620908666597,128.0,128.0)" width="247.82608695652175" x="4.0869565217391255" y="4.0869565217391255" /><rect fill="rgb(10,95,128)" height="243.47826086956522" opacity="0.8115942028985508" transform="rotate(24.93114900026191,128.0,128.0)" width="243.47826086956522" x="6.260869565217391" y="6.260869565217391" /><rect fill="rgb(10,91,127)" height="239.1304347826087" opacity="0.7971014492753623" transform="rotate(27.194512174301106,128.0,128.0)" width="239.1304347826087" x="8.434782608695656" y="8.434782608695656" /><rect fill="rgb(9,88,125)" height="234.7826086956522" opacity="0.782608695652174" transform="rotate(29.488907996977083,128.0,128.0)" width="234.7826086956522" x="10.608695652173907" y="10.608695652173907" /><rect fill="rgb(9,84,123)" height="230.43478260869566" opacity="0.7681159420289855" transform="rotate(31.81274251699617,128.0,128.0)" width="230.43478260869566" x="12.782608695652172" y="12.782608695652172" /><rect fill="rgb(9,81,121)" height="226.08695652173913" opacity="0.7536231884057971" transform="rotate(34.16459499535579,128.0,128.0)" width="226.08695652173913" x="14.956521739130437" y="14.956521739130437" /><rect fill="rgb(8,78,119)" height="221.73913043478262" opacity="0.7391304347826086" transform="rotate(36.543190276164204,128.0,128.0)" width="221.73913043478262" x="17.13043478260869" y="17.13043478260869" /><rect fill="rgb(8,75,117)" height="217.3913043478261" opacity="0.7246376811594203" transform="rotate(38.947376819228126,128.0,128.0)" width="217.3913043478261" x="19.304347826086953" y="19.304347826086953" /><rect fill="rgb(8,72,116)" height="213.04347826086956" opacity="0.7101449275362319" transform="rotate(41.37610900320195,128.0,128.0)" width="213.04347826086956" x="21.47826086956522" y="21.47826086956522" /><rect fill="rgb(7,69,114)" height="208.69565217391306" opacity="0.6956521739130435" transform="rotate(43.82843270121146,128.0,128.0)" width="208.69565217391306" x="23.65217391304347" y="23.65217391304347" /><rect fill="rgb(7,66,112)" height="204.34782608695653" opacity="0.681159420289855" transform="rotate(46.303473399747375,128.0,128.0)" width="204.34782608695653" x="25.826086956521735" y="25.826086956521735" /><rect fill="rgb(7,63,110)" height="200.0" opacity="0.6666666666666667" transform="rotate(48.800426319321296,128.0,128.0)" width="200.0" x="28.0" y="28.0" /><rect fill="rgb(7,60,108)" height="195.6521739130435" opacity="0.6521739130434783" transform="rotate(51.318548128820254,128.0,128.0)" width="195.6521739130435" x="30.17391304347825" y="30.17391304347825" /><rect fill="rgb(6,57,106)" height="191.30434782608697" opacity="0.6376811594202898" transform="rotate(53.85714994194518,128.0,128.0)" width="191.30434782608697" x="32.347826086956516" y="32.347826086956516" /><rect fill="rgb(6,54,104)" height="186.95652173913044" opacity="0.6231884057971014" transform="rotate(56.415591354880306,128.0,128.0)" width="186.95652173913044" x="34.52173913043478" y="34.52173913043478" /><rect fill="rgb(6,51,103)" height="182.60869565217394" opacity="0.6086956521739131" transform="rotate(58.99327533696812,128.0,128.0)" width="182.60869565217394" x="36.69565217391303" y="36.69565217391303" /><rect fill="rgb(6,49,101)" height="178.2608695652174" opacity="0.5942028985507246" transform="rotate(61.589643825796394,128.0,128.0)" width="178.2608695652174" x="38.8695652173913" y="38.8695652173913" /><rect fill="rgb(5,46,99)" height="173.91304347826087" opacity="0.5797101449275363" transform="rotate(64.20417390829317,128.0,128.0)" width="173.91304347826087" x="41.04347826086956" y="41.04347826086956" /><rect fill="rgb(5,44,97)" height="169.56521739130434" opacity="0.5652173913043479" transform="rotate(66.836374492665,128.0,128.0)" width="169.56521739130434" x="43.21739130434783" y="43.21739130434783" /><rect fill="rgb(5,41,95)" height="165.21739130434784" opacity="0.5507246376811594" transform="rotate(69.48578339408088,128.0,128.0)" width="165.21739130434784" x="45.39130434782608" y="45.39130434782608" /><rect fill="rgb(5,39,93)" height="160.8695652173913" opacity="0.536231884057971" transform="rotate(72.15196477117517,128.0,128.0)" width="160.8695652173913" x="47.565217391304344" y="47.565217391304344" /><rect fill="rgb(4,36,92)" height="156.52173913043478" opacity="0.5217391304347826" transform="rotate(74.83450686165467,128.0,128.0)" width="156.52173913043478" x="49.73913043478261" y="49.73913043478261" /><rect fill="rgb(4,34,90)" height="152.17391304347828" opacity="0.5072463768115942" transform="rotate(77.53301997423304,128.0,128.0)" width="152.17391304347828" x="51.91304347826086" y="51.91304347826086" /><rect fill="rgb(4,32,88)" height="147.82608695652175" opacity="0.49275362318840576" transform="rotate(80.24713470129565,128.0,128.0)" width="147.82608695652175" x="54.086956521739125" y="54.086956521739125" /><rect fill="rgb(4,29,86)" height="143.47826086956522" opacity="0.4782608695652174" transform="rotate(82.97650032250401,128.0,128.0)" width="143.47826086956522" x="56.26086956521739" y="56.26086956521739" /><rect fill="rgb(3,27,84)" height="139.13043478260872" opacity="0.46376811594202894" transform="rotate(85.72078337427499,128.0,128.0)" width="139.13043478260872" x="58.43478260869564" y="58.43478260869564" /><rect fill="rgb(3,25,82)" height="134.7826086956522" opacity="0.4492753623188406" transform="rotate(88.47966636394075,128.0,128.0)" width="134.7826086956522" x="60.60869565217391" y="60.60869565217391" /><rect fill="rgb(3,23,80)" height="130.43478260869566" opacity="0.4347826086956522" transform="rotate(91.25284661058267,128.0,128.0)" width="130.43478260869566" x="62.78260869565217" y="62.78260869565217" /><rect fill="rgb(3,21,79)" height="126.08695652173913" opacity="0.42028985507246375" transform="rotate(94.04003519717268,128.0,128.0)" width="126.08695652173913" x="64.95652173913044" y="64.95652173913044" /><rect fill="rgb(3,19,77)" height="121.73913043478262" opacity="0.4057971014492754" transform="rotate(96.84095602085225,128.0,128.0)" width="121.73913043478262" x="67.13043478260869" y="67.13043478260869" /><rect fill="rgb(2,18,75)" height="117.3913043478261" opacity="0.3913043478260869" transform="rotate(99.65534493001769,128.0,128.0)" width="117.3913043478261" x="69.30434782608695" y="69.30434782608695" /><rect fill="rgb(2,16,73)" height="113.04347826086956" opacity="0.37681159420289856" transform="rotate(102.48294893842328,128.0,128.0)" width="113.04347826086956" x="71.47826086956522" y="71.47826086956522" /><rect fill="rgb(2,14,71)" height="108.69565217391306" opacity="0.3623188405797101" transform="rotate(105.32352550781839,128.0,128.0)" width="108.69565217391306" x="73.65217391304347" y="73.65217391304347" /><rect fill="rgb(2,13,69)" height="104.34782608695653" opacity="0.34782608695652173" transform="rotate(108.17684189173737,128.0,128.0)" width="104.34782608695653" x="75.82608695652173" y="75.82608695652173" /><rect fill="rgb(2,11,68)" height="100.0" opacity="0.33333333333333337" transform="rotate(111.04267453400155,128.0,128.0)" width="100.0" x="78.0" y="78.0" /><rect fill="rgb(2,9,66)" height="95.6521739130435" opacity="0.3188405797101449" transform="rotate(113.92080851629437,128.0,128.0)" width="95.6521739130435" x="80.17391304347825" y="80.17391304347825" /><rect fill="rgb(1,8,64)" height="91.30434782608697" opacity="0.30434782608695654" transform="rotate(116.8110370498583,128.0,128.0)" width="91.30434782608697" x="82.34782608695652" y="82.34782608695652" /><rect fill="rgb(1,7,62)" height="86.95652173913044" opacity="0.28985507246376807" transform="rotate(119.7131610069537,128.0,128.0)" width="86.95652173913044" x="84.52173913043478" y="84.52173913043478" /><rect fill="rgb(1,5,60)" height="82.60869565217394" opacity="0.2753623188405797" transform="rotate(122.62698848822924,128.0,128.0)" width="82.60869565217394" x="86.69565217391303" y="86.69565217391303" /><rect fill="rgb(1,4,58)" height="78.2608695652174" opacity="0.26086956521739124" transform="rotate(125.55233442259605,128.0,128.0)" width="78.2608695652174" x="88.8695652173913" y="88.8695652173913" /><rect fill="rgb(1,3,56)" height="73.91304347826087" opacity="0.24637681159420288" transform="rotate(128.48902019658047,128.0,128.0)" width="73.91304347826087" x="91.04347826086956" y="91.04347826086956" /><rect fill="rgb(1,2,55)" height="69.56521739130437" opacity="0.23188405797101452" transform="rotate(131.4368733104637,128.0,128.0)" width="69.56521739130437" x="93.21739130434781" y="93.21739130434781" /><rect fill="rgb(1,1,53)" height="65.21739130434784" opacity="0.21739130434782605" transform="rotate(134.39572705880892,128.0,128.0)" width="65.21739130434784" x="95.39130434782608" y="95.39130434782608" /><rect fill="rgb(1,1,51)" height="60.86956521739131" opacity="0.2028985507246377" transform="rotate(137.36542023323085,128.0,128.0)" width="60.86956521739131" x="97.56521739130434" y="97.56521739130434" /><rect fill="rgb(2,0,49)" height="56.52173913043481" opacity="0.18840579710144922" transform="rotate(140.34579684548666,128.0,128.0)" width="56.52173913043481" x="99.7391304347826" y="99.7391304347826" /><rect fill="rgb(3,0,47)" height="52.17391304347828" opacity="0.17391304347826086" transform="rotate(143.3367058691642,128.0,128.0)" width="52.17391304347828" x="101.91304347826086" y="101.91304347826086" /><rect fill="rgb(3,0,45)" height="47.82608695652175" opacity="0.1594202898550725" transform="rotate(146.33800099841727,128.0,128.0)" width="47.82608695652175" x="104.08695652173913" y="104.08695652173913" /><rect fill="rgb(4,0,43)" height="43.47826086956525" opacity="0.14492753623188404" transform="rotate(149.349540422351,128.0,128.0)" width="43.47826086956525" x="106.26086956521738" y="106.26086956521738" /><rect fill="rgb(4,0,42)" height="39.13043478260869" opacity="0.13043478260869568" transform="rotate(152.3711866137965,128.0,128.0)" width="39.13043478260869" x="108.43478260869566" y="108.43478260869566" /><rect fill="rgb(5,0,40)" height="34.782608695652186" opacity="0.1159420289855072" transform="rotate(155.40280613133447,128.0,128.0)" width="34.782608695652186" x="110.6086956521739" y="110.6086956521739" /><rect fill="rgb(5,0,38)" height="30.434782608695684" opacity="0.10144927536231885" transform="rotate(158.44426943353528,128.0,128.0)" width="30.434782608695684" x="112.78260869565216" y="112.78260869565216" /><rect fill="rgb(5,0,36)" height="26.086956521739125" opacity="0.08695652173913038" transform="rotate(161.49545070447834,128.0,128.0)" width="26.086956521739125" x="114.95652173913044" y="114.95652173913044" /><rect fill="rgb(6,0,34)" height="21.739130434782624" opacity="0.07246376811594202" transform="rotate(164.55622768969948,128.0,128.0)" width="21.739130434782624" x="117.13043478260869" y="117.13043478260869" /><rect fill="rgb(6,0,32)" height="17.39130434782612" opacity="0.05797101449275366" transform="rotate(167.6264815417904,128.0,128.0)" width="17.39130434782612" x="119.30434782608694" y="119.30434782608694" /><rect fill="rgb(6,0,31)" height="13.043478260869563" opacity="0.04347826086956519" transform="rotate(170.7060966749451,128.0,128.0)" width="13.043478260869563" x="121.47826086956522" y="121.47826086956522" /><rect fill="rgb(6,0,29)" height="8.69565217391306" opacity="0.02898550724637683" transform="rotate(173.79496062780703,128.0,128.0)" width="8.69565217391306" x="123.65217391304347" y="123.65217391304347" /><rect fill="rgb(6,0,27)" height="4.347826086956559" opacity="0.01449275362318836" transform="rotate(176.89296393402824,128.0,128.0)" width="4.347826086956559" x="125.82608695652172" y="125.82608695652172" /><rect fill="rgb(6,0,25)" height="0.0" opacity="0.0" transform="rotate(180.0,128.0,128.0)" width="0.0" x="128.0" y="128.0" /></svg>