<?xml version="1.0" encoding="utf-8" ?>
<svg baseProfile="full" height="256" version="1.1" width="256" xmlns="http://www.w3.org/2000/svg" xmlns:ev="http://www.w3.org/2001/xml-events" xmlns:xlink="http://www.w3.org/1999/xlink"><defs /><rect fill="black" height="100%" width="100%" x="0" y="0" /><rect fill="crimson" height="4.073256332286297" opacity="0.6910076451970826" transform="rotate(0.0,190.84897858522658,128.0)" width="4.073256332286297" x="188.81235041908343" y="125.96337183385685" /><rect fill="crimson" height="7.181568081884706" opacity="0.478490710830263" transform="rotate(1.8367346938775508,163.62849623229178,129.14253652750867)" width="7.181568081884706" x="160.03771219134944" y="125.55175248656631" /><rect fill="crimson" height="5.160761899978402" opacity="0.587539677040394" transform="rotate(3.6734693877551017,177.50315970693305,131.17820830198175)" width="5.160761899978402" x="174.92277875694384" y="128.59782735199255" /><rect fill="crimson" height="7.741365516512886" opacity="0.45835235343607755" transform="rotate(5.510204081632653,160.9162926581172,131.17539516509478)" width="7.741365516512886" x="157.04560989986075" y="127.30471240683835" /><rect fill="crimson" height="4.00097019105272" opacity="0.699878755525986" transform="rotate(7.346938775510203,191.45916900519228,136.1821537847099)" width="4.00097019105272" x="189.45868390966592" y="134.18166868918354" /><rect fill="crimson" height="3.8735132306292477" opacity="0.7163271379029477" transform="rotate(9.183673469387758,193.24271933699976,138.54793689756104)" width="3.8735132306292477" x="191.30596272168512" y="136.6111802822464" /><rect fill="crimson" height="9.268790513286168" opacity="0.4157778835472804" transform="rotate(11.020408163265307,155.11024095641406,133.27971895334176)" width="9.268790513286168" x="150.47584569977099" y="128.64532369669868" /><rect fill="crimson" height="5.077157900226567" opacity="0.5939211738738224" transform="rotate(12.857142857142858,177.1577276939544,139.21993056199304)" width="5.077157900226567" x="174.61914874384112" y="136.68135161187976" /><rect fill="crimson" height="6.544908203144052" opacity="0.5055810620902578" transform="rotate(14.693877551020407,165.8351349250454,137.9215407558566)" width="6.544908203144052" x="162.56268082347336" y="134.64908665428456" /><rect fill="crimson" height="3.973240151553643" opacity="0.7033675095672096" transform="rotate(16.53061224489796,189.76796795970657,146.33240866376082)" width="3.973240151553643" x="187.78134788392975" y="144.345788587984" /><rect fill="crimson" height="6.650365601731747" opacity="0.5007353459604089" transform="rotate(18.367346938775515,164.53306987685988,140.1298149071746)" width="6.650365601731747" x="161.20788707599402" y="136.80463210630873" /><rect fill="crimson" height="3.4343895294376225" opacity="0.7823451250526896" transform="rotate(20.20408163265306,197.9536013563607,153.74357194314308)" width="3.4343895294376225" x="196.2364065916419" y="152.02637717842427" /><rect fill="crimson" height="4.297946865722289" opacity="0.6653384656638586" transform="rotate(22.040816326530614,183.21024277267418,150.35215004989948)" width="4.297946865722289" x="181.06126933981304" y="148.20317661703834" /><rect fill="crimson" height="6.144094946733217" opacity="0.5255158029521321" transform="rotate(23.877551020408163,166.09993717895134,144.8657119946412)" width="6.144094946733217" x="163.02788970558473" y="141.7936645212746" /><rect fill="crimson" height="5.772218126796245" opacity="0.5464872525720126" transform="rotate(25.714285714285715,167.9583011446305,147.24290364192186)" width="5.772218126796245" x="165.07219208123237" y="144.35679457852373" /><rect fill="crimson" height="4.453944195203977" opacity="0.6490402017505309" transform="rotate(27.551020408163264,178.95919761991843,154.58538075738755)" width="4.453944195203977" x="176.73222552231644" y="152.35840865978557" /><rect fill="crimson" height="5.238619416814473" opacity="0.581779976911583" transform="rotate(29.387755102040813,170.57946044708584,151.980305366294)" width="5.238619416814473" x="167.9601507386786" y="149.36099565788678" /><rect fill="crimson" height="6.861325892904167" opacity="0.4914888508747786" transform="rotate(31.22448979591837,159.90586640925588,147.3415237169741)" width="6.861325892904167" x="156.4752034628038" y="143.91086077052202" /><rect fill="crimson" height="3.995847238790556" opacity="0.7005196346308149" transform="rotate(33.06122448979592,181.69338266225873,162.9505189673295)" width="3.995847238790556" x="179.69545904286346" y="160.95259534793422" /><rect fill="crimson" height="6.133602569258232" opacity="0.52607264285822" transform="rotate(34.89795918367347,162.231774035893,151.8786036978245)" width="6.133602569258232" x="159.1649727512639" y="148.81180241319538" /><rect fill="crimson" height="6.593902780472096" opacity="0.5033105076894702" transform="rotate(36.73469387755103,159.11387808230745,151.22089070818674)" width="6.593902780472096" x="155.8169266920714" y="147.9239393179507" /><rect fill="crimson" height="4.460965329664779" opacity="0.6483334552502095" transform="rotate(38.57142857142857,172.86671487466052,163.7800111591161)" width="4.460965329664779" x="170.63623220982814" y="161.54952849428372" /><rect fill="crimson" height="11.59928065140319" opacity="0.37242448563032704" transform="rotate(40.40816326530612,144.80536674650745,142.30661729688546)" width="11.59928065140319" x="139.00572642080584" y="136.50697697118386" /><rect fill="crimson" height="5.259235991419733" opacity="0.5802833725778673" transform="rotate(42.244897959183675,164.03397291174267,160.72510079176655)" width="5.259235991419733" x="161.4043549160328" y="158.09548279605667" /><rect fill="crimson" height="5.461683241161889" opacity="0.566187475854885" transform="rotate(44.08163265306123,161.67046851766835,160.60803036182773)" width="5.461683241161889" x="158.9396268970874" y="157.87718874124678" /><rect fill="crimson" height="4.845805273627495" opacity="0.6127280992665294" transform="rotate(45.91836734693878,164.7523503108439,165.94981912002328)" width="4.845805273627495" x="162.32944767403015" y="163.52691648320953" /><rect fill="crimson" height="3.1342271065062812" opacity="0.8381158518628848" transform="rotate(47.755102040816325,182.91274947805132,188.46503996404033)" width="3.1342271065062812" x="181.3456359247982" y="186.8979264107872" /><rect fill="crimson" height="7.743784315027146" opacity="0.45827165616156357" transform="rotate(49.59183673469388,149.42963471706818,153.17246831942725)" width="7.743784315027146" x="145.5577425595546" y="149.30057616191368" /><rect fill="crimson" height="6.726625414955549" opacity="0.4973259066207742" transform="rotate(51.42857142857143,151.7285978376262,157.75472055673225)" width="6.726625414955549" x="148.36528513014844" y="154.39140784925448" /><rect fill="crimson" height="7.583615612535232" opacity="0.46372644688031495" transform="rotate(53.26530612244898,148.19040832616304,155.0533077730202)" width="7.583615612535232" x="144.3986005198954" y="151.26149996675258" /><rect fill="crimson" height="5.306070726157379" opacity="0.5769267511155824" transform="rotate(55.10204081632653,155.60269746674527,167.57054249988772)" width="5.306070726157379" x="152.94966210366658" y="164.91750713680904" /><rect fill="crimson" height="14.200063419072015" opacity="0.34084444139269215" transform="rotate(56.93877551020409,137.8349514779158,143.10912652433296)" width="14.200063419072015" x="130.7349197683798" y="136.00909481479695" /><rect fill="crimson" height="7.193683929373759" opacity="0.4780216672897538" transform="rotate(58.77551020408163,146.44791886749564,158.43177174291367)" width="7.193683929373759" x="142.85107690280876" y="154.83492977822678" /><rect fill="crimson" height="6.27754978807544" opacity="0.5185956412164365" transform="rotate(60.61224489795919,148.0115805615174,163.5325876792404)" width="6.27754978807544" x="144.8728056674797" y="160.3938127852027" /><rect fill="crimson" height="7.281611768684384" opacity="0.47466446489241393" transform="rotate(62.44897959183674,144.26148249360014,159.17021747954246)" width="7.281611768684384" x="140.62067660925794" y="155.52941159520026" /><rect fill="crimson" height="3.398593970867212" opacity="0.7884786523909664" transform="rotate(64.28571428571429,160.68240871555253,195.86572098936705)" width="3.398593970867212" x="158.9831117301189" y="194.16642400393343" /><rect fill="crimson" height="6.833377278878762" opacity="0.4926810445812477" transform="rotate(66.12244897959184,143.16446869685143,162.25679893536596)" width="6.833377278878762" x="139.74778005741206" y="158.8401102959266" /><rect fill="crimson" height="7.302796982606918" opacity="0.4738676708065968" transform="rotate(67.95918367346938,141.1550080712809,160.49312427084269)" width="7.302796982606918" x="137.50360957997742" y="156.84172577953922" /><rect fill="crimson" height="4.622169839617279" opacity="0.6326972113524938" transform="rotate(69.79591836734694,147.12812748117787,179.97730165290324)" width="4.622169839617279" x="144.81704256136922" y="177.6662167330946" /><rect fill="crimson" height="7.510312056826581" opacity="0.46630051918842413" transform="rotate(71.63265306122449,138.74092570370937,160.34995688546545)" width="7.510312056826581" x="134.98576967529607" y="156.59480085705215" /><rect fill="crimson" height="3.907151516041952" opacity="0.7118818637537898" transform="rotate(73.46938775510206,146.64249745075978,190.81275997865603)" width="3.907151516041952" x="144.6889216927388" y="188.85918422063506" /><rect fill="crimson" height="5.42915500132175" opacity="0.5683814515358452" transform="rotate(75.3061224489796,139.96053040759105,173.61068617081398)" width="5.42915500132175" x="137.24595290693017" y="170.8961086701531" /><rect fill="crimson" height="4.752632689493312" opacity="0.6208193922541958" transform="rotate(77.14285714285714,139.98606389649052,180.5143771514889)" width="4.752632689493312" x="137.60974755174385" y="178.13806080674223" /><rect fill="crimson" height="7.14352384343736" opacity="0.4799738677763871" transform="rotate(78.9795918367347,134.85048584145324,163.17579694516718)" width="7.14352384343736" x="131.27872391973455" y="159.6040350234485" /><rect fill="crimson" height="5.7552431415391245" opacity="0.547509210438873" transform="rotate(80.81632653061224,135.09919148917461,171.91100955059125)" width="5.7552431415391245" x="132.22156991840507" y="169.0333879798217" /><rect fill="crimson" height="3.506972738435528" opacity="0.7702924285896235" transform="rotate(82.6530612244898,137.33470426857022,200.39812296117702)" width="3.506972738435528" x="135.58121789935245" y="198.64463659195926" /><rect fill="crimson" height="6.083965803991547" opacity="0.5287329456532854" transform="rotate(84.48979591836735,132.04043931611827,169.88338020371765)" width="6.083965803991547" x="128.9984564141225" y="166.84139730172188" /><rect fill="crimson" height="5.634282966369764" opacity="0.5549697471599699" transform="rotate(86.3265306122449,130.91110269274077,173.3427742392376)" width="5.634282966369764" x="128.09396120955589" y="170.52563275605272" /><rect fill="crimson" height="3.446122594223558" opacity="0.7803624059551537" transform="rotate(88.16326530612245,130.38099592629044,202.24822081961526)" width="3.446122594223558" x="128.65793462917867" y="200.5251595225035" /><rect fill="crimson" height="4.508147373842525" opacity="0.6436412198067291" transform="rotate(90.0,128.0,184.7860761352613)" width="4.508147373842525" x="125.74592631307874" y="182.53200244834005" /><rect fill="crimson" height="8.986535114413966" opacity="0.4225551866805814" transform="rotate(195.0,100.48360926856212,120.627005324892)" width="8.986535114413966" x="95.99034171135514" y="116.13373776768502" /><rect fill="crimson" height="9.166714704939682" opacity="0.41818067479751025" transform="rotate(196.57894736842104,101.23387457699577,120.03137920629204)" width="9.166714704939682" x="96.65051722452593" y="115.4480218538222" /><rect fill="crimson" height="9.964244214875741" opacity="0.40071768183021605" transform="rotate(198.1578947368421,103.58755754538883,119.99347191949211)" width="9.964244214875741" x="98.60543543795096" y="115.01134981205423" /><rect fill="crimson" height="8.003850486096498" opacity="0.44987973019663513" transform="rotate(199.73684210526315,97.8943752001268,117.19878052385762)" width="8.003850486096498" x="93.89244995707855" y="113.19685528080937" /><rect fill="crimson" height="5.148950147948604" opacity="0.5884286976048547" transform="rotate(201.31578947368422,81.68234073189788,109.92679327038819)" width="5.148950147948604" x="79.10786565792358" y="107.35231819641389" /><rect fill="crimson" height="5.2957429948615795" opacity="0.5776618317657382" transform="rotate(202.89473684210526,83.46751160254544,109.1935608842259)" width="5.2957429948615795" x="80.81964010511466" y="106.54568938679512" /><rect fill="crimson" height="8.018879016612892" opacity="0.449411419707986" transform="rotate(204.4736842105263,98.94371670253842,114.77440258281256)" width="8.018879016612892" x="94.93427719423198" y="110.76496307450611" /><rect fill="crimson" height="4.221024052470612" opacity="0.6738186693888603" transform="rotate(206.05263157894737,73.51367428723083,101.36325845404323)" width="4.221024052470612" x="71.40316226099551" y="99.25274642780792" /><rect fill="crimson" height="7.396347094202524" opacity="0.4704037512744175" transform="rotate(207.6315789473684,97.33584786111214,111.94764262428627)" width="7.396347094202524" x="93.63767431401088" y="108.24946907718501" /><rect fill="crimson" height="3.949064936157765" opacity="0.7064490030761297" transform="rotate(209.2105263157895,71.41822517687447,96.3638714609821)" width="3.949064936157765" x="69.4436927087956" y="94.38933899290322" /><rect fill="crimson" height="5.395265412734347" opacity="0.5706953869738153" transform="rotate(210.78947368421055,87.23874073004404,103.71156142612735)" width="5.395265412734347" x="84.54110802367687" y="101.01392871976017" /><rect fill="crimson" height="8.388352161936762" opacity="0.43842585067842765" transform="rotate(212.3684210526316,102.22336175368349,111.66156967776318)" width="8.388352161936762" x="98.02918567271512" y="107.4673935967948" /><rect fill="crimson" height="7.809250048304941" opacity="0.4561065387365994" transform="rotate(213.94736842105263,100.80596374977446,109.69371380956261)" width="7.809250048304941" x="96.901338725622" y="105.78908878541014" /><rect fill="crimson" height="10.180873270678806" opacity="0.3964468024329558" transform="rotate(215.5263157894737,107.53561879399777,113.38871265873462)" width="10.180873270678806" x="102.44518215865837" y="108.29827602339522" /><rect fill="crimson" height="3.7528742187747275" opacity="0.7329248686232224" transform="rotate(217.10526315789474,73.59708426991196,86.84754158974849)" width="3.7528742187747275" x="71.72064716052459" y="84.97110448036112" /><rect fill="crimson" height="16.341368145630028" opacity="0.3223887732151017" transform="rotate(218.68421052631578,115.77126342432216,118.20846634878204)" width="16.341368145630028" x="107.60057935150715" y="110.03778227596703" /><rect fill="crimson" height="6.690699462876358" opacity="0.49892240880001987" transform="rotate(220.26315789473685,98.8028252437498,103.27125440166279)" width="6.690699462876358" x="95.45747551231162" y="99.92590467022461" /><rect fill="crimson" height="5.563935026416684" opacity="0.559457828048731" transform="rotate(221.8421052631579,93.72274658281009,97.30724199949121)" width="5.563935026416684" x="90.94077906960175" y="94.52527448628287" /><rect fill="crimson" height="4.208735022995516" opacity="0.6752021662263082" transform="rotate(223.42105263157896,83.8208174293307,86.19106346843805)" width="4.208735022995516" x="81.71644991783295" y="84.08669595694029" /><rect fill="crimson" height="4.7774493588029605" opacity="0.6186334275453462" transform="rotate(225.0,90.10962746256875,90.10962746256877)" width="4.7774493588029605" x="87.72090278316728" y="87.72090278316729" /></svg>