<?xml version="1.0" encoding="utf-8" ?>
<svg baseProfile="full" height="256" version="1.1" width="256" xmlns="http://www.w3.org/2000/svg" xmlns:ev="http://www.w3.org/2001/xml-events" xmlns:xlink="http://www.w3.org/1999/xlink"><defs /><rect fill="pink" height="100%" width="100%" x="0" y="0" /><rect fill="rgb(0,0,0)" height="256.0" opacity="1.0" transform="rotate(0.0,128.0,128.0)" width="256.0" x="0.0" y="0.0" /><rect fill="rgb(3,0,0)" height="252.23529411764707" opacity="1.0" transform="rotate(0.6976341456567742,128.0,128.0)" width="252.23529411764707" x="1.882352941176464" y="1.882352941176464" /><rect fill="rgb(7,0,0)" height="248.47058823529412" opacity="1.0" transform="rotate(1.4887830672025224,128.0,128.0)" width="248.47058823529412" x="3.764705882352942" y="3.764705882352942" /><rect fill="rgb(11,0,0)" height="244.7058823529412" opacity="1.0" transform="rotate(2.342460055497623,128.0,128.0)" width="244.7058823529412" x="5.647058823529406" y="5.647058823529406" /><rect fill="rgb(15,1,0)" height="240.94117647058823" opacity="1.0" transform="rotate(3.2442798787397527,128.0,128.0)" width="240.94117647058823" x="7.529411764705884" y="7.529411764705884" /><rect fill="rgb(18,1,0)" height="237.1764705882353" opacity="1.0" transform="rotate(4.185694347504801,128.0,128.0)" width="237.1764705882353" x="9.411764705882348" y="9.411764705882348" /><rect fill="rgb(22,2,0)" height="233.41176470588235" opacity="1.0" transform="rotate(5.160967143345635,128.0,128.0)" width="233.41176470588235" x="11.294117647058826" y="11.294117647058826" /><rect fill="rgb(26,3,0)" height="229.64705882352942" opacity="1.0" transform="rotate(6.165951997926185,128.0,128.0)" width="229.64705882352942" x="13.17647058823529" y="13.17647058823529" /><rect fill="rgb(30,4,0)" height="225.88235294117646" opacity="1.0" transform="rotate(7.197496637664101,128.0,128.0)" width="225.88235294117646" x="15.058823529411768" y="15.058823529411768" /><rect fill="rgb(33,5,0)" height="222.11764705882354" opacity="1.0" transform="rotate(8.253114843349522,128.0,128.0)" width="222.11764705882354" x="16.941176470588232" y="16.941176470588232" /><rect fill="rgb(37,6,0)" height="218.35294117647058" opacity="1.0" transform="rotate(9.330790133754036,128.0,128.0)" width="218.35294117647058" x="18.82352941176471" y="18.82352941176471" /><rect fill="rgb(41,8,0)" height="214.58823529411765" opacity="1.0" transform="rotate(10.428850616624354,128.0,128.0)" width="214.58823529411765" x="20.705882352941174" y="20.705882352941174" /><rect fill="rgb(44,9,0)" height="210.8235294117647" opacity="1.0" transform="rotate(11.545885215775522,128.0,128.0)" width="210.8235294117647" x="22.588235294117652" y="22.588235294117652" /><rect fill="rgb(48,11,0)" height="207.05882352941177" opacity="1.0" transform="rotate(12.680685359361451,128.0,128.0)" width="207.05882352941177" x="24.470588235294116" y="24.470588235294116" /><rect fill="rgb(52,12,0)" height="203.29411764705884" opacity="1.0" transform="rotate(13.832203069314003,128.0,128.0)" width="203.29411764705884" x="26.35294117647058" y="26.35294117647058" /><rect fill="rgb(56,14,0)" height="199.52941176470588" opacity="1.0" transform="rotate(14.99952002174678,128.0,128.0)" width="199.52941176470588" x="28.235294117647058" y="28.235294117647058" /><rect fill="rgb(60,16,0)" height="195.76470588235293" opacity="1.0" transform="rotate(16.181824181904453,128.0,128.0)" width="195.76470588235293" x="30.117647058823536" y="30.117647058823536" /><rect fill="rgb(63,19,0)" height="192.0" opacity="1.0" transform="rotate(17.378391811585775,128.0,128.0)" width="192.0" x="32.0" y="32.0" /><rect fill="rgb(67,21,0)" height="188.23529411764707" opacity="1.0" transform="rotate(18.588573376784428,128.0,128.0)" width="188.23529411764707" x="33.882352941176464" y="33.882352941176464" /><rect fill="rgb(71,23,0)" height="184.47058823529412" opacity="1.0" transform="rotate(19.811782344713055,128.0,128.0)" width="184.47058823529412" x="35.76470588235294" y="35.76470588235294" /><rect fill="rgb(75,26,0)" height="180.70588235294116" opacity="1.0" transform="rotate(21.047486159864448,128.0,128.0)" width="180.70588235294116" x="37.64705882352942" y="37.64705882352942" /><rect fill="rgb(78,29,0)" height="176.94117647058823" opacity="1.0" transform="rotate(22.295198889588374,128.0,128.0)" width="176.94117647058823" x="39.529411764705884" y="39.529411764705884" /><rect fill="rgb(82,32,0)" height="173.1764705882353" opacity="1.0" transform="rotate(23.554475166991274,128.0,128.0)" width="173.1764705882353" x="41.41176470588235" y="41.41176470588235" /><rect fill="rgb(86,35,0)" height="169.41176470588235" opacity="1.0" transform="rotate(24.824905154811546,128.0,128.0)" width="169.41176470588235" x="43.294117647058826" y="43.294117647058826" /><rect fill="rgb(89,38,0)" height="165.64705882352942" opacity="1.0" transform="rotate(26.1061103220527,128.0,128.0)" width="165.64705882352942" x="45.17647058823529" y="45.17647058823529" /><rect fill="rgb(93,41,0)" height="161.88235294117646" opacity="1.0" transform="rotate(27.397739874390904,128.0,128.0)" width="161.88235294117646" x="47.05882352941177" y="47.05882352941177" /><rect fill="rgb(97,44,0)" height="158.11764705882354" opacity="1.0" transform="rotate(28.69946771548972,128.0,128.0)" width="158.11764705882354" x="48.94117647058823" y="48.94117647058823" /><rect fill="rgb(101,48,0)" height="154.3529411764706" opacity="1.0" transform="rotate(30.01098984321251,128.0,128.0)" width="154.3529411764706" x="50.823529411764696" y="50.823529411764696" /><rect fill="rgb(105,51,0)" height="150.58823529411765" opacity="1.0" transform="rotate(31.332022104945384,128.0,128.0)" width="150.58823529411765" x="52.705882352941174" y="52.705882352941174" /><rect fill="rgb(108,55,0)" height="146.8235294117647" opacity="1.0" transform="rotate(32.66229825164662,128.0,128.0)" width="146.8235294117647" x="54.58823529411765" y="54.58823529411765" /><rect fill="rgb(112,59,0)" height="143.05882352941177" opacity="1.0" transform="rotate(34.00156824209459,128.0,128.0)" width="143.05882352941177" x="56.470588235294116" y="56.470588235294116" /><rect fill="rgb(116,63,0)" height="139.29411764705884" opacity="1.0" transform="rotate(35.34959675802167,128.0,128.0)" width="139.29411764705884" x="58.35294117647058" y="58.35294117647058" /><rect fill="rgb(120,67,0)" height="135.52941176470588" opacity="1.0" transform="rotate(36.70616189805045,128.0,128.0)" width="135.52941176470588" x="60.23529411764706" y="60.23529411764706" /><rect fill="rgb(123,72,0)" height="131.76470588235293" opacity="1.0" transform="rotate(38.07105402406649,128.0,128.0)" width="131.76470588235293" x="62.117647058823536" y="62.117647058823536" /><rect fill="rgb(127,76,0)" height="128.0" opacity="1.0" transform="rotate(39.44407473821982,128.0,128.0)" width="128.0" x="64.0" y="64.0" /><rect fill="rgb(131,81,0)" height="124.23529411764707" opacity="1.0" transform="rotate(40.82503597240949,128.0,128.0)" width="124.23529411764707" x="65.88235294117646" y="65.88235294117646" /><rect fill="rgb(135,85,0)" height="120.47058823529412" opacity="1.0" transform="rotate(42.21375917506531,128.0,128.0)" width="120.47058823529412" x="67.76470588235294" y="67.76470588235294" /><rect fill="rgb(138,90,0)" height="116.70588235294119" opacity="1.0" transform="rotate(43.61007458245112,128.0,128.0)" width="116.70588235294119" x="69.6470588235294" y="69.6470588235294" /><rect fill="rgb(142,95,0)" height="112.94117647058823" opacity="1.0" transform="rotate(45.01382056368709,128.0,128.0)" width="112.94117647058823" x="71.52941176470588" y="71.52941176470588" /><rect fill="rgb(146,100,0)" height="109.1764705882353" opacity="1.0" transform="rotate(46.424843030313916,128.0,128.0)" width="109.1764705882353" x="73.41176470588235" y="73.41176470588235" /><rect fill="rgb(150,105,0)" height="105.41176470588235" opacity="1.0" transform="rotate(47.84299490256718,128.0,128.0)" width="105.41176470588235" x="75.29411764705883" y="75.29411764705883" /><rect fill="rgb(153,111,0)" height="101.64705882352942" opacity="1.0" transform="rotate(49.26813562565057,128.0,128.0)" width="101.64705882352942" x="77.17647058823529" y="77.17647058823529" /><rect fill="rgb(157,116,0)" height="97.88235294117646" opacity="1.0" transform="rotate(50.70013073023335,128.0,128.0)" width="97.88235294117646" x="79.05882352941177" y="79.05882352941177" /><rect fill="rgb(161,122,0)" height="94.11764705882354" opacity="1.0" transform="rotate(52.138851432184254,128.0,128.0)" width="94.11764705882354" x="80.94117647058823" y="80.94117647058823" /><rect fill="rgb(165,128,0)" height="90.35294117647058" opacity="1.0" transform="rotate(53.584174267218295,128.0,128.0)" width="90.35294117647058" x="82.82352941176471" y="82.82352941176471" /><rect fill="rgb(168,134,0)" height="86.58823529411765" opacity="1.0" transform="rotate(55.035980756696134,128.0,128.0)" width="86.58823529411765" x="84.70588235294117" y="84.70588235294117" /><rect fill="rgb(172,140,0)" height="82.8235294117647" opacity="1.0" transform="rotate(56.494157101293624,128.0,128.0)" width="82.8235294117647" x="86.58823529411765" y="86.58823529411765" /><rect fill="rgb(176,146,0)" height="79.05882352941177" opacity="1.0" transform="rotate(57.95859389966892,128.0,128.0)" width="79.05882352941177" x="88.47058823529412" y="88.47058823529412" /><rect fill="rgb(179,152,0)" height="75.29411764705884" opacity="1.0" transform="rotate(59.42918588960407,128.0,128.0)" width="75.29411764705884" x="90.35294117647058" y="90.35294117647058" /><rect fill="rgb(183,158,0)" height="71.52941176470588" opacity="1.0" transform="rotate(60.90583170939999,128.0,128.0)" width="71.52941176470588" x="92.23529411764706" y="92.23529411764706" /><rect fill="rgb(187,165,0)" height="67.76470588235296" opacity="1.0" transform="rotate(62.38843367756329,128.0,128.0)" width="67.76470588235296" x="94.11764705882352" y="94.11764705882352" /><rect fill="rgb(191,172,0)" height="64.0" opacity="1.0" transform="rotate(63.87689758904857,128.0,128.0)" width="64.0" x="96.0" y="96.0" /><rect fill="rgb(195,178,0)" height="60.23529411764707" opacity="1.0" transform="rotate(65.37113252651514,128.0,128.0)" width="60.23529411764707" x="97.88235294117646" y="97.88235294117646" /><rect fill="rgb(198,185,0)" height="56.470588235294116" opacity="1.0" transform="rotate(66.87105068522706,128.0,128.0)" width="56.470588235294116" x="99.76470588235294" y="99.76470588235294" /><rect fill="rgb(202,192,0)" height="52.70588235294119" opacity="1.0" transform="rotate(68.37656721037402,128.0,128.0)" width="52.70588235294119" x="101.6470588235294" y="101.6470588235294" /><rect fill="rgb(206,200,0)" height="48.94117647058823" opacity="1.0" transform="rotate(69.88760004572032,128.0,128.0)" width="48.94117647058823" x="103.52941176470588" y="103.52941176470588" /><rect fill="rgb(210,207,0)" height="45.176470588235304" opacity="1.0" transform="rotate(71.40406979260358,128.0,128.0)" width="45.176470588235304" x="105.41176470588235" y="105.41176470588235" /><rect fill="rgb(212,213,0)" height="41.41176470588235" opacity="1.0" transform="rotate(72.92589957840481,128.0,128.0)" width="41.41176470588235" x="107.29411764705883" y="107.29411764705883" /><rect fill="rgb(212,217,0)" height="37.64705882352942" opacity="1.0" transform="rotate(74.4530149337001,128.0,128.0)" width="37.64705882352942" x="109.17647058823529" y="109.17647058823529" /><rect fill="rgb(212,221,0)" height="33.882352941176464" opacity="1.0" transform="rotate(75.98534367738272,128.0,128.0)" width="33.882352941176464" x="111.05882352941177" y="111.05882352941177" /><rect fill="rgb(211,225,0)" height="30.117647058823536" opacity="1.0" transform="rotate(77.52281580911277,128.0,128.0)" width="30.117647058823536" x="112.94117647058823" y="112.94117647058823" /><rect fill="rgb(211,228,0)" height="26.35294117647058" opacity="1.0" transform="rotate(79.0653634085144,128.0,128.0)" width="26.35294117647058" x="114.82352941176471" y="114.82352941176471" /><rect fill="rgb(210,232,0)" height="22.588235294117652" opacity="1.0" transform="rotate(80.61292054059399,128.0,128.0)" width="22.588235294117652" x="116.70588235294117" y="116.70588235294117" /><rect fill="rgb(209,236,0)" height="18.823529411764696" opacity="1.0" transform="rotate(82.16542316690224,128.0,128.0)" width="18.823529411764696" x="118.58823529411765" y="118.58823529411765" /><rect fill="rgb(208,240,0)" height="15.058823529411768" opacity="1.0" transform="rotate(83.72280906200672,128.0,128.0)" width="15.058823529411768" x="120.47058823529412" y="120.47058823529412" /><rect fill="rgb(207,243,0)" height="11.29411764705884" opacity="1.0" transform="rotate(85.2850177348795,128.0,128.0)" width="11.29411764705884" x="122.35294117647058" y="122.35294117647058" /><rect fill="rgb(206,247,0)" height="7.529411764705884" opacity="1.0" transform="rotate(86.85199035484077,128.0,128.0)" width="7.529411764705884" x="124.23529411764706" y="124.23529411764706" /><rect fill="rgb(205,251,0)" height="3.7647058823529562" opacity="1.0" transform="rotate(88.42366968172931,128.0,128.0)" width="3.7647058823529562" x="126.11764705882352" y="126.11764705882352" /><rect fill="rgb(203,255,0)" height="0.0" opacity="1.0" transform="rotate(90.0,128.0,128.0)" width="0.0" x="128.0" y="128.0" /></svg>