<?xml version="1.0" encoding="utf-8" ?>
<svg baseProfile="full" height="256" version="1.1" width="256" xmlns="http://www.w3.org/2000/svg" xmlns:ev="http://www.w3.org/2001/xml-events" xmlns:xlink="http://www.w3.org/1999/xlink"><defs /><rect fill="pink" height="100%" width="100%" x="0" y="0" /><rect fill="rgb(0,0,0)" height="256.0" opacity="1.0" transform="rotate(0.0,128.0,128.0)" width="256.0" x="0.0" y="0.0" /><rect fill="rgb(3,0,0)" height="252.28985507246378" opacity="1.0" transform="rotate(2.608695652173913,128.0,128.0)" width="252.28985507246378" x="1.85507246376811" y="1.85507246376811" /><rect fill="rgb(7,1,0)" height="248.57971014492753" opacity="1.0" transform="rotate(5.217391304347826,128.0,128.0)" width="248.57971014492753" x="3.710144927536234" y="3.710144927536234" /><rect fill="rgb(11,1,0)" height="244.8695652173913" opacity="1.0" transform="rotate(7.826086956521739,128.0,128.0)" width="244.8695652173913" x="5.565217391304344" y="5.565217391304344" /><rect fill="rgb(14,2,0)" height="241.15942028985506" opacity="1.0" transform="rotate(10.434782608695652,128.0,128.0)" width="241.15942028985506" x="7.420289855072468" y="7.420289855072468" /><rect fill="rgb(18,3,0)" height="237.44927536231884" opacity="1.0" transform="rotate(13.043478260869566,128.0,128.0)" width="237.44927536231884" x="9.275362318840578" y="9.275362318840578" /><rect fill="rgb(22,3,0)" height="233.73913043478262" opacity="1.0" transform="rotate(15.652173913043478,128.0,128.0)" width="233.73913043478262" x="11.130434782608688" y="11.130434782608688" /><rect fill="rgb(25,4,0)" height="230.02898550724638" opacity="1.0" transform="rotate(18.26086956521739,128.0,128.0)" width="230.02898550724638" x="12.985507246376812" y="12.985507246376812" /><rect fill="rgb(29,5,0)" height="226.31884057971016" opacity="1.0" transform="rotate(20.869565217391305,128.0,128.0)" width="226.31884057971016" x="14.840579710144922" y="14.840579710144922" /><rect fill="rgb(33,5,0)" height="222.6086956521739" opacity="1.0" transform="rotate(23.47826086956522,128.0,128.0)" width="222.6086956521739" x="16.695652173913047" y="16.695652173913047" /><rect fill="rgb(36,6,0)" height="218.8985507246377" opacity="1.0" transform="rotate(26.086956521739133,128.0,128.0)" width="218.8985507246377" x="18.550724637681157" y="18.550724637681157" /><rect fill="rgb(40,7,0)" height="215.18840579710144" opacity="1.0" transform="rotate(28.695652173913043,128.0,128.0)" width="215.18840579710144" x="20.40579710144928" y="20.40579710144928" /><rect fill="rgb(44,7,0)" height="211.47826086956522" opacity="1.0" transform="rotate(31.304347826086957,128.0,128.0)" width="211.47826086956522" x="22.26086956521739" y="22.26086956521739" /><rect fill="rgb(48,8,0)" height="207.768115942029" opacity="1.0" transform="rotate(33.91304347826087,128.0,128.0)" width="207.768115942029" x="24.1159420289855" y="24.1159420289855" /><rect fill="rgb(51,9,0)" height="204.05797101449275" opacity="1.0" transform="rotate(36.52173913043478,128.0,128.0)" width="204.05797101449275" x="25.971014492753625" y="25.971014492753625" /><rect fill="rgb(55,9,0)" height="200.34782608695653" opacity="1.0" transform="rotate(39.130434782608695,128.0,128.0)" width="200.34782608695653" x="27.826086956521735" y="27.826086956521735" /><rect fill="rgb(59,10,0)" height="196.63768115942028" opacity="1.0" transform="rotate(41.73913043478261,128.0,128.0)" width="196.63768115942028" x="29.68115942028986" y="29.68115942028986" /><rect fill="rgb(62,11,0)" height="192.92753623188406" opacity="1.0" transform="rotate(44.34782608695652,128.0,128.0)" width="192.92753623188406" x="31.53623188405797" y="31.53623188405797" /><rect fill="rgb(66,11,0)" height="189.2173913043478" opacity="1.0" transform="rotate(46.95652173913044,128.0,128.0)" width="189.2173913043478" x="33.39130434782609" y="33.39130434782609" /><rect fill="rgb(70,12,0)" height="185.5072463768116" opacity="1.0" transform="rotate(49.56521739130435,128.0,128.0)" width="185.5072463768116" x="35.2463768115942" y="35.2463768115942" /><rect fill="rgb(73,13,0)" height="181.79710144927537" opacity="1.0" transform="rotate(52.173913043478265,128.0,128.0)" width="181.79710144927537" x="37.10144927536231" y="37.10144927536231" /><rect fill="rgb(77,13,0)" height="178.08695652173913" opacity="1.0" transform="rotate(54.78260869565217,128.0,128.0)" width="178.08695652173913" x="38.95652173913044" y="38.95652173913044" /><rect fill="rgb(81,14,0)" height="174.37681159420288" opacity="1.0" transform="rotate(57.391304347826086,128.0,128.0)" width="174.37681159420288" x="40.81159420289856" y="40.81159420289856" /><rect fill="rgb(85,15,0)" height="170.66666666666669" opacity="1.0" transform="rotate(60.0,128.0,128.0)" width="170.66666666666669" x="42.66666666666666" y="42.66666666666666" /><rect fill="rgb(88,15,0)" height="166.95652173913044" opacity="1.0" transform="rotate(62.608695652173914,128.0,128.0)" width="166.95652173913044" x="44.52173913043478" y="44.52173913043478" /><rect fill="rgb(92,16,0)" height="163.2463768115942" opacity="1.0" transform="rotate(65.21739130434783,128.0,128.0)" width="163.2463768115942" x="46.376811594202906" y="46.376811594202906" /><rect fill="rgb(96,17,0)" height="159.53623188405797" opacity="1.0" transform="rotate(67.82608695652173,128.0,128.0)" width="159.53623188405797" x="48.231884057971016" y="48.231884057971016" /><rect fill="rgb(99,17,0)" height="155.82608695652175" opacity="1.0" transform="rotate(70.43478260869566,128.0,128.0)" width="155.82608695652175" x="50.086956521739125" y="50.086956521739125" /><rect fill="rgb(103,18,0)" height="152.1159420289855" opacity="1.0" transform="rotate(73.04347826086956,128.0,128.0)" width="152.1159420289855" x="51.94202898550725" y="51.94202898550725" /><rect fill="rgb(107,19,0)" height="148.40579710144928" opacity="1.0" transform="rotate(75.65217391304348,128.0,128.0)" width="148.40579710144928" x="53.79710144927536" y="53.79710144927536" /><rect fill="rgb(110,19,0)" height="144.69565217391306" opacity="1.0" transform="rotate(78.26086956521739,128.0,128.0)" width="144.69565217391306" x="55.65217391304347" y="55.65217391304347" /><rect fill="rgb(114,20,0)" height="140.9855072463768" opacity="1.0" transform="rotate(80.86956521739131,128.0,128.0)" width="140.9855072463768" x="57.507246376811594" y="57.507246376811594" /><rect fill="rgb(118,21,0)" height="137.27536231884056" opacity="1.0" transform="rotate(83.47826086956522,128.0,128.0)" width="137.27536231884056" x="59.36231884057972" y="59.36231884057972" /><rect fill="rgb(121,21,0)" height="133.56521739130434" opacity="1.0" transform="rotate(86.08695652173913,128.0,128.0)" width="133.56521739130434" x="61.21739130434783" y="61.21739130434783" /><rect fill="rgb(125,22,0)" height="129.85507246376812" opacity="1.0" transform="rotate(88.69565217391305,128.0,128.0)" width="129.85507246376812" x="63.07246376811594" y="63.07246376811594" /><rect fill="rgb(129,23,0)" height="126.14492753623188" opacity="1.0" transform="rotate(91.30434782608695,128.0,128.0)" width="126.14492753623188" x="64.92753623188406" y="64.92753623188406" /><rect fill="rgb(133,23,0)" height="122.43478260869566" opacity="1.0" transform="rotate(93.91304347826087,128.0,128.0)" width="122.43478260869566" x="66.78260869565217" y="66.78260869565217" /><rect fill="rgb(136,24,0)" height="118.72463768115941" opacity="1.0" transform="rotate(96.52173913043478,128.0,128.0)" width="118.72463768115941" x="68.6376811594203" y="68.6376811594203" /><rect fill="rgb(140,25,0)" height="115.01449275362319" opacity="1.0" transform="rotate(99.1304347826087,128.0,128.0)" width="115.01449275362319" x="70.4927536231884" y="70.4927536231884" /><rect fill="rgb(144,25,0)" height="111.30434782608697" opacity="1.0" transform="rotate(101.73913043478261,128.0,128.0)" width="111.30434782608697" x="72.34782608695652" y="72.34782608695652" /><rect fill="rgb(147,26,0)" height="107.59420289855072" opacity="1.0" transform="rotate(104.34782608695653,128.0,128.0)" width="107.59420289855072" x="74.20289855072464" y="74.20289855072464" /><rect fill="rgb(151,27,0)" height="103.8840579710145" opacity="1.0" transform="rotate(106.95652173913044,128.0,128.0)" width="103.8840579710145" x="76.05797101449275" y="76.05797101449275" /><rect fill="rgb(155,27,0)" height="100.17391304347825" opacity="1.0" transform="rotate(109.56521739130434,128.0,128.0)" width="100.17391304347825" x="77.91304347826087" y="77.91304347826087" /><rect fill="rgb(158,28,0)" height="96.46376811594203" opacity="1.0" transform="rotate(112.17391304347827,128.0,128.0)" width="96.46376811594203" x="79.76811594202898" y="79.76811594202898" /><rect fill="rgb(162,29,0)" height="92.75362318840578" opacity="1.0" transform="rotate(114.78260869565217,128.0,128.0)" width="92.75362318840578" x="81.62318840579711" y="81.62318840579711" /><rect fill="rgb(166,29,0)" height="89.04347826086956" opacity="1.0" transform="rotate(117.3913043478261,128.0,128.0)" width="89.04347826086956" x="83.47826086956522" y="83.47826086956522" /><rect fill="rgb(170,30,0)" height="85.33333333333334" opacity="1.0" transform="rotate(120.0,128.0,128.0)" width="85.33333333333334" x="85.33333333333333" y="85.33333333333333" /><rect fill="rgb(173,31,0)" height="81.6231884057971" opacity="1.0" transform="rotate(122.60869565217392,128.0,128.0)" width="81.6231884057971" x="87.18840579710145" y="87.18840579710145" /><rect fill="rgb(177,31,0)" height="77.91304347826087" opacity="1.0" transform="rotate(125.21739130434783,128.0,128.0)" width="77.91304347826087" x="89.04347826086956" y="89.04347826086956" /><rect fill="rgb(181,32,0)" height="74.20289855072463" opacity="1.0" transform="rotate(127.82608695652173,128.0,128.0)" width="74.20289855072463" x="90.89855072463769" y="90.89855072463769" /><rect fill="rgb(184,33,0)" height="70.4927536231884" opacity="1.0" transform="rotate(130.43478260869566,128.0,128.0)" width="70.4927536231884" x="92.7536231884058" y="92.7536231884058" /><rect fill="rgb(188,33,0)" height="66.78260869565216" opacity="1.0" transform="rotate(133.04347826086956,128.0,128.0)" width="66.78260869565216" x="94.60869565217392" y="94.60869565217392" /><rect fill="rgb(192,34,0)" height="63.07246376811594" opacity="1.0" transform="rotate(135.65217391304347,128.0,128.0)" width="63.07246376811594" x="96.46376811594203" y="96.46376811594203" /><rect fill="rgb(195,35,0)" height="59.36231884057972" opacity="1.0" transform="rotate(138.2608695652174,128.0,128.0)" width="59.36231884057972" x="98.31884057971014" y="98.31884057971014" /><rect fill="rgb(199,35,0)" height="55.65217391304347" opacity="1.0" transform="rotate(140.8695652173913,128.0,128.0)" width="55.65217391304347" x="100.17391304347827" y="100.17391304347827" /><rect fill="rgb(203,36,0)" height="51.94202898550725" opacity="1.0" transform="rotate(143.47826086956522,128.0,128.0)" width="51.94202898550725" x="102.02898550724638" y="102.02898550724638" /><rect fill="rgb(206,37,0)" height="48.231884057971" opacity="1.0" transform="rotate(146.08695652173913,128.0,128.0)" width="48.231884057971" x="103.8840579710145" y="103.8840579710145" /><rect fill="rgb(210,37,0)" height="44.52173913043478" opacity="1.0" transform="rotate(148.69565217391303,128.0,128.0)" width="44.52173913043478" x="105.73913043478261" y="105.73913043478261" /><rect fill="rgb(214,38,0)" height="40.81159420289856" opacity="1.0" transform="rotate(151.30434782608697,128.0,128.0)" width="40.81159420289856" x="107.59420289855072" y="107.59420289855072" /><rect fill="rgb(218,39,0)" height="37.10144927536231" opacity="1.0" transform="rotate(153.91304347826087,128.0,128.0)" width="37.10144927536231" x="109.44927536231884" y="109.44927536231884" /><rect fill="rgb(221,39,0)" height="33.39130434782609" opacity="1.0" transform="rotate(156.52173913043478,128.0,128.0)" width="33.39130434782609" x="111.30434782608695" y="111.30434782608695" /><rect fill="rgb(225,40,0)" height="29.681159420289845" opacity="1.0" transform="rotate(159.1304347826087,128.0,128.0)" width="29.681159420289845" x="113.15942028985508" y="113.15942028985508" /><rect fill="rgb(229,41,0)" height="25.971014492753625" opacity="1.0" transform="rotate(161.73913043478262,128.0,128.0)" width="25.971014492753625" x="115.01449275362319" y="115.01449275362319" /><rect fill="rgb(232,41,0)" height="22.260869565217376" opacity="1.0" transform="rotate(164.34782608695653,128.0,128.0)" width="22.260869565217376" x="116.86956521739131" y="116.86956521739131" /><rect fill="rgb(236,42,0)" height="18.550724637681157" opacity="1.0" transform="rotate(166.95652173913044,128.0,128.0)" width="18.550724637681157" x="118.72463768115942" y="118.72463768115942" /><rect fill="rgb(240,43,0)" height="14.840579710144937" opacity="1.0" transform="rotate(169.56521739130434,128.0,128.0)" width="14.840579710144937" x="120.57971014492753" y="120.57971014492753" /><rect fill="rgb(243,43,0)" height="11.130434782608688" opacity="1.0" transform="rotate(172.17391304347825,128.0,128.0)" width="11.130434782608688" x="122.43478260869566" y="122.43478260869566" /><rect fill="rgb(247,44,0)" height="7.420289855072468" opacity="1.0" transform="rotate(174.7826086956522,128.0,128.0)" width="7.420289855072468" x="124.28985507246377" y="124.28985507246377" /><rect fill="rgb(251,45,0)" height="3.71014492753622" opacity="1.0" transform="rotate(177.3913043478261,128.0,128.0)" width="3.71014492753622" x="126.14492753623189" y="126.14492753623189" /><rect fill="rgb(255,45,0)" height="0.0" opacity="1.0" transform="rotate(180.0,128.0,128.0)" width="0.0" x="128.0" y="128.0" /></svg>