<?xml version="1.0" encoding="utf-8" ?>
<svg baseProfile="full" height="256" version="1.1" width="256" xmlns="http://www.w3.org/2000/svg" xmlns:ev="http://www.w3.org/2001/xml-events" xmlns:xlink="http://www.w3.org/1999/xlink"><defs /><rect fill="black" height="100%" width="100%" x="0" y="0" /><rect fill="rgb(255,255,255)" height="256.0" opacity="1.0" transform="rotate(0.0,128.0,128.0)" width="256.0" x="0.0" y="0.0" /><rect fill="rgb(0,0,0)" height="242.5263157894737" opacity="0.9736842105263158" transform="rotate(15.090913345948241,128.0,128.0)" width="242.5263157894737" x="6.73684210526315" y="6.73684210526315" /><rect fill="rgb(255,255,255)" height="229.05263157894737" opacity="0.9473684210526316" transform="rotate(33.39319749257235,128.0,128.0)" width="229.05263157894737" x="13.473684210526315" y="13.473684210526315" /><rect fill="rgb(0,0,0)" height="215.57894736842104" opacity="0.9210526315789473" transform="rotate(53.50608006779958,128.0,128.0)" width="215.57894736842104" x="20.21052631578948" y="20.21052631578948" /><rect fill="rgb(255,255,255)" height="202.10526315789474" opacity="0.8947368421052632" transform="rotate(74.94002717716671,128.0,128.0)" width="202.10526315789474" x="26.94736842105263" y="26.94736842105263" /><rect fill="rgb(0,0,0)" height="188.63157894736844" opacity="0.868421052631579" transform="rotate(97.43074737479805,128.0,128.0)" width="188.63157894736844" x="33.68421052631578" y="33.68421052631578" /><rect fill="rgb(255,255,255)" height="175.1578947368421" opacity="0.8421052631578947" transform="rotate(120.80982490180521,128.0,128.0)" width="175.1578947368421" x="40.421052631578945" y="40.421052631578945" /><rect fill="rgb(0,0,0)" height="161.68421052631578" opacity="0.8157894736842105" transform="rotate(144.9594595247435,128.0,128.0)" width="161.68421052631578" x="47.15789473684211" y="47.15789473684211" /><rect fill="rgb(255,255,255)" height="148.21052631578948" opacity="0.7894736842105263" transform="rotate(169.7921130097477,128.0,128.0)" width="148.21052631578948" x="53.89473684210526" y="53.89473684210526" /><rect fill="rgb(0,0,0)" height="134.73684210526318" opacity="0.7631578947368421" transform="rotate(195.23989616121355,128.0,128.0)" width="134.73684210526318" x="60.63157894736841" y="60.63157894736841" /><rect fill="rgb(255,255,255)" height="121.26315789473685" opacity="0.736842105263158" transform="rotate(221.24845501689634,128.0,128.0)" width="121.26315789473685" x="67.36842105263158" y="67.36842105263158" /><rect fill="rgb(0,0,0)" height="107.78947368421052" opacity="0.7105263157894737" transform="rotate(247.77318479451668,128.0,128.0)" width="107.78947368421052" x="74.10526315789474" y="74.10526315789474" /><rect fill="rgb(255,255,255)" height="94.31578947368422" opacity="0.6842105263157895" transform="rotate(274.7767525213928,128.0,128.0)" width="94.31578947368422" x="80.84210526315789" y="80.84210526315789" /><rect fill="rgb(0,0,0)" height="80.84210526315792" opacity="0.6578947368421053" transform="rotate(302.227403927654,128.0,128.0)" width="80.84210526315792" x="87.57894736842104" y="87.57894736842104" /><rect fill="rgb(255,255,255)" height="67.36842105263159" opacity="0.631578947368421" transform="rotate(330.09776479761985,128.0,128.0)" width="67.36842105263159" x="94.3157894736842" y="94.3157894736842" /><rect fill="rgb(0,0,0)" height="53.89473684210526" opacity="0.6052631578947368" transform="rotate(358.363967236594,128.0,128.0)" width="53.89473684210526" x="101.05263157894737" y="101.05263157894737" /><rect fill="rgb(255,255,255)" height="40.42105263157896" opacity="0.5789473684210527" transform="rotate(387.0049969249759,128.0,128.0)" width="40.42105263157896" x="107.78947368421052" y="107.78947368421052" /><rect fill="rgb(0,0,0)" height="26.94736842105266" opacity="0.5526315789473685" transform="rotate(416.0021951170551,128.0,128.0)" width="26.94736842105266" x="114.52631578947367" y="114.52631578947367" /><rect fill="rgb(255,255,255)" height="13.47368421052633" opacity="0.5263157894736843" transform="rotate(445.3388717393169,128.0,128.0)" width="13.47368421052633" x="121.26315789473684" y="121.26315789473684" /><rect fill="rgb(0,0,0)" height="0.0" opacity="0.5" transform="rotate(475.0,128.0,128.0)" width="0.0" x="128.0" y="128.0" /></svg>