<?xml version="1.0" encoding="utf-8" ?>
<svg baseProfile="full" height="256" version="1.1" width="256" xmlns="http://www.w3.org/2000/svg" xmlns:ev="http://www.w3.org/2001/xml-events" xmlns:xlink="http://www.w3.org/1999/xlink"><defs /><rect fill="pink" height="100%" width="100%" x="0" y="0" /><rect fill="rgb(255,168,0)" height="300.0" opacity="1.0" transform="rotate(0.0,128.0,128.0)" width="300.0" x="-22.0" y="-22.0" /><rect fill="rgb(0,0,0)" height="295.6521739130435" opacity="1.0" transform="rotate(20.50974512743628,128.0,128.0)" width="295.6521739130435" x="-19.82608695652175" y="-19.82608695652175" /><rect fill="rgb(255,168,0)" height="291.30434782608694" opacity="1.0" transform="rotate(41.01949025487256,128.0,128.0)" width="291.30434782608694" x="-17.65217391304347" y="-17.65217391304347" /><rect fill="rgb(0,0,0)" height="286.95652173913044" opacity="1.0" transform="rotate(61.52923538230884,128.0,128.0)" width="286.95652173913044" x="-15.478260869565219" y="-15.478260869565219" /><rect fill="rgb(255,168,0)" height="282.60869565217394" opacity="1.0" transform="rotate(82.03898050974512,128.0,128.0)" width="282.60869565217394" x="-13.304347826086968" y="-13.304347826086968" /><rect fill="rgb(0,0,0)" height="278.2608695652174" opacity="1.0" transform="rotate(102.54872563718139,128.0,128.0)" width="278.2608695652174" x="-11.130434782608688" y="-11.130434782608688" /><rect fill="rgb(255,168,0)" height="273.9130434782609" opacity="1.0" transform="rotate(123.05847076461768,128.0,128.0)" width="273.9130434782609" x="-8.956521739130437" y="-8.956521739130437" /><rect fill="rgb(0,0,0)" height="269.5652173913044" opacity="1.0" transform="rotate(143.56821589205396,128.0,128.0)" width="269.5652173913044" x="-6.782608695652186" y="-6.782608695652186" /><rect fill="rgb(255,168,0)" height="265.2173913043478" opacity="1.0" transform="rotate(164.07796101949023,128.0,128.0)" width="265.2173913043478" x="-4.608695652173907" y="-4.608695652173907" /><rect fill="rgb(0,0,0)" height="260.8695652173913" opacity="1.0" transform="rotate(184.5877061469265,128.0,128.0)" width="260.8695652173913" x="-2.434782608695656" y="-2.434782608695656" /><rect fill="rgb(255,168,0)" height="256.52173913043475" opacity="1.0" transform="rotate(205.09745127436278,128.0,128.0)" width="256.52173913043475" x="-0.2608695652173765" y="-0.2608695652173765" /><rect fill="rgb(0,0,0)" height="252.17391304347825" opacity="1.0" transform="rotate(225.60719640179906,128.0,128.0)" width="252.17391304347825" x="1.9130434782608745" y="1.9130434782608745" /><rect fill="rgb(255,168,0)" height="247.82608695652175" opacity="1.0" transform="rotate(246.11694152923536,128.0,128.0)" width="247.82608695652175" x="4.0869565217391255" y="4.0869565217391255" /><rect fill="rgb(0,0,0)" height="243.47826086956522" opacity="1.0" transform="rotate(266.6266866566716,128.0,128.0)" width="243.47826086956522" x="6.260869565217391" y="6.260869565217391" /><rect fill="rgb(255,168,0)" height="239.1304347826087" opacity="1.0" transform="rotate(287.1364317841079,128.0,128.0)" width="239.1304347826087" x="8.434782608695656" y="8.434782608695656" /><rect fill="rgb(0,0,0)" height="234.7826086956522" opacity="1.0" transform="rotate(307.64617691154416,128.0,128.0)" width="234.7826086956522" x="10.608695652173907" y="10.608695652173907" /><rect fill="rgb(255,168,0)" height="230.43478260869566" opacity="1.0" transform="rotate(328.15592203898046,128.0,128.0)" width="230.43478260869566" x="12.782608695652172" y="12.782608695652172" /><rect fill="rgb(0,0,0)" height="226.08695652173913" opacity="1.0" transform="rotate(348.66566716641677,128.0,128.0)" width="226.08695652173913" x="14.956521739130437" y="14.956521739130437" /><rect fill="rgb(255,168,0)" height="221.73913043478262" opacity="1.0" transform="rotate(369.175412293853,128.0,128.0)" width="221.73913043478262" x="17.13043478260869" y="17.13043478260869" /><rect fill="rgb(0,0,0)" height="217.3913043478261" opacity="1.0" transform="rotate(389.6851574212893,128.0,128.0)" width="217.3913043478261" x="19.304347826086953" y="19.304347826086953" /><rect fill="rgb(255,168,0)" height="213.04347826086956" opacity="1.0" transform="rotate(410.19490254872557,128.0,128.0)" width="213.04347826086956" x="21.47826086956522" y="21.47826086956522" /><rect fill="rgb(0,0,0)" height="208.69565217391306" opacity="1.0" transform="rotate(430.70464767616187,128.0,128.0)" width="208.69565217391306" x="23.65217391304347" y="23.65217391304347" /><rect fill="rgb(255,168,0)" height="204.34782608695653" opacity="1.0" transform="rotate(451.2143928035981,128.0,128.0)" width="204.34782608695653" x="25.826086956521735" y="25.826086956521735" /><rect fill="rgb(0,0,0)" height="200.0" opacity="1.0" transform="rotate(471.7241379310344,128.0,128.0)" width="200.0" x="28.0" y="28.0" /><rect fill="rgb(255,168,0)" height="195.6521739130435" opacity="1.0" transform="rotate(492.2338830584707,128.0,128.0)" width="195.6521739130435" x="30.17391304347825" y="30.17391304347825" /><rect fill="rgb(0,0,0)" height="191.30434782608697" opacity="1.0" transform="rotate(512.743628185907,128.0,128.0)" width="191.30434782608697" x="32.347826086956516" y="32.347826086956516" /><rect fill="rgb(255,168,0)" height="186.95652173913044" opacity="1.0" transform="rotate(533.2533733133432,128.0,128.0)" width="186.95652173913044" x="34.52173913043478" y="34.52173913043478" /><rect fill="rgb(0,0,0)" height="182.60869565217394" opacity="1.0" transform="rotate(553.7631184407795,128.0,128.0)" width="182.60869565217394" x="36.69565217391303" y="36.69565217391303" /><rect fill="rgb(255,168,0)" height="178.2608695652174" opacity="1.0" transform="rotate(574.2728635682158,128.0,128.0)" width="178.2608695652174" x="38.8695652173913" y="38.8695652173913" /><rect fill="rgb(0,0,0)" height="173.91304347826087" opacity="1.0" transform="rotate(594.7826086956521,128.0,128.0)" width="173.91304347826087" x="41.04347826086956" y="41.04347826086956" /><rect fill="rgb(255,168,0)" height="169.56521739130434" opacity="1.0" transform="rotate(615.2923538230883,128.0,128.0)" width="169.56521739130434" x="43.21739130434783" y="43.21739130434783" /><rect fill="rgb(0,0,0)" height="165.21739130434784" opacity="1.0" transform="rotate(635.8020989505246,128.0,128.0)" width="165.21739130434784" x="45.39130434782608" y="45.39130434782608" /><rect fill="rgb(255,168,0)" height="160.8695652173913" opacity="1.0" transform="rotate(656.3118440779609,128.0,128.0)" width="160.8695652173913" x="47.565217391304344" y="47.565217391304344" /><rect fill="rgb(0,0,0)" height="156.52173913043478" opacity="1.0" transform="rotate(676.8215892053972,128.0,128.0)" width="156.52173913043478" x="49.73913043478261" y="49.73913043478261" /><rect fill="rgb(255,168,0)" height="152.17391304347828" opacity="1.0" transform="rotate(697.3313343328335,128.0,128.0)" width="152.17391304347828" x="51.91304347826086" y="51.91304347826086" /><rect fill="rgb(0,0,0)" height="147.82608695652175" opacity="1.0" transform="rotate(717.8410794602697,128.0,128.0)" width="147.82608695652175" x="54.086956521739125" y="54.086956521739125" /><rect fill="rgb(255,168,0)" height="143.47826086956522" opacity="1.0" transform="rotate(738.350824587706,128.0,128.0)" width="143.47826086956522" x="56.26086956521739" y="56.26086956521739" /><rect fill="rgb(0,0,0)" height="139.13043478260872" opacity="1.0" transform="rotate(758.8605697151423,128.0,128.0)" width="139.13043478260872" x="58.43478260869564" y="58.43478260869564" /><rect fill="rgb(255,168,0)" height="134.7826086956522" opacity="1.0" transform="rotate(779.3703148425786,128.0,128.0)" width="134.7826086956522" x="60.60869565217391" y="60.60869565217391" /><rect fill="rgb(0,0,0)" height="130.43478260869566" opacity="1.0" transform="rotate(799.8800599700148,128.0,128.0)" width="130.43478260869566" x="62.78260869565217" y="62.78260869565217" /><rect fill="rgb(255,168,0)" height="126.08695652173913" opacity="1.0" transform="rotate(820.3898050974511,128.0,128.0)" width="126.08695652173913" x="64.95652173913044" y="64.95652173913044" /><rect fill="rgb(0,0,0)" height="121.73913043478262" opacity="1.0" transform="rotate(840.8995502248874,128.0,128.0)" width="121.73913043478262" x="67.13043478260869" y="67.13043478260869" /><rect fill="rgb(255,168,0)" height="117.3913043478261" opacity="1.0" transform="rotate(861.4092953523237,128.0,128.0)" width="117.3913043478261" x="69.30434782608695" y="69.30434782608695" /><rect fill="rgb(0,0,0)" height="113.04347826086956" opacity="1.0" transform="rotate(881.91904047976,128.0,128.0)" width="113.04347826086956" x="71.47826086956522" y="71.47826086956522" /><rect fill="rgb(255,168,0)" height="108.69565217391306" opacity="1.0" transform="rotate(902.4287856071962,128.0,128.0)" width="108.69565217391306" x="73.65217391304347" y="73.65217391304347" /><rect fill="rgb(0,0,0)" height="104.34782608695653" opacity="1.0" transform="rotate(922.9385307346325,128.0,128.0)" width="104.34782608695653" x="75.82608695652173" y="75.82608695652173" /><rect fill="rgb(255,168,0)" height="100.0" opacity="1.0" transform="rotate(943.4482758620688,128.0,128.0)" width="100.0" x="78.0" y="78.0" /><rect fill="rgb(0,0,0)" height="95.6521739130435" opacity="1.0" transform="rotate(963.9580209895051,128.0,128.0)" width="95.6521739130435" x="80.17391304347825" y="80.17391304347825" /><rect fill="rgb(255,168,0)" height="91.30434782608697" opacity="1.0" transform="rotate(984.4677661169414,128.0,128.0)" width="91.30434782608697" x="82.34782608695652" y="82.34782608695652" /><rect fill="rgb(0,0,0)" height="86.95652173913044" opacity="1.0" transform="rotate(1004.9775112443776,128.0,128.0)" width="86.95652173913044" x="84.52173913043478" y="84.52173913043478" /><rect fill="rgb(255,168,0)" height="82.60869565217394" opacity="1.0" transform="rotate(1025.487256371814,128.0,128.0)" width="82.60869565217394" x="86.69565217391303" y="86.69565217391303" /><rect fill="rgb(0,0,0)" height="78.2608695652174" opacity="1.0" transform="rotate(1045.9970014992502,128.0,128.0)" width="78.2608695652174" x="88.8695652173913" y="88.8695652173913" /><rect fill="rgb(255,168,0)" height="73.91304347826087" opacity="1.0" transform="rotate(1066.5067466266864,128.0,128.0)" width="73.91304347826087" x="91.04347826086956" y="91.04347826086956" /><rect fill="rgb(0,0,0)" height="69.56521739130437" opacity="1.0" transform="rotate(1087.0164917541229,128.0,128.0)" width="69.56521739130437" x="93.21739130434781" y="93.21739130434781" /><rect fill="rgb(255,168,0)" height="65.21739130434784" opacity="1.0" transform="rotate(1107.526236881559,128.0,128.0)" width="65.21739130434784" x="95.39130434782608" y="95.39130434782608" /><rect fill="rgb(0,0,0)" height="60.86956521739131" opacity="1.0" transform="rotate(1128.0359820089952,128.0,128.0)" width="60.86956521739131" x="97.56521739130434" y="97.56521739130434" /><rect fill="rgb(255,168,0)" height="56.52173913043481" opacity="1.0" transform="rotate(1148.5457271364317,128.0,128.0)" width="56.52173913043481" x="99.7391304347826" y="99.7391304347826" /><rect fill="rgb(0,0,0)" height="52.17391304347828" opacity="1.0" transform="rotate(1169.0554722638678,128.0,128.0)" width="52.17391304347828" x="101.91304347826086" y="101.91304347826086" /><rect fill="rgb(255,168,0)" height="47.82608695652175" opacity="1.0" transform="rotate(1189.5652173913043,128.0,128.0)" width="47.82608695652175" x="104.08695652173913" y="104.08695652173913" /><rect fill="rgb(0,0,0)" height="43.47826086956525" opacity="1.0" transform="rotate(1210.0749625187404,128.0,128.0)" width="43.47826086956525" x="106.26086956521738" y="106.26086956521738" /><rect fill="rgb(255,168,0)" height="39.13043478260869" opacity="1.0" transform="rotate(1230.5847076461766,128.0,128.0)" width="39.13043478260869" x="108.43478260869566" y="108.43478260869566" /><rect fill="rgb(0,0,0)" height="34.782608695652186" opacity="1.0" transform="rotate(1251.094452773613,128.0,128.0)" width="34.782608695652186" x="110.6086956521739" y="110.6086956521739" /><rect fill="rgb(255,168,0)" height="30.434782608695684" opacity="1.0" transform="rotate(1271.6041979010492,128.0,128.0)" width="30.434782608695684" x="112.78260869565216" y="112.78260869565216" /><rect fill="rgb(0,0,0)" height="26.086956521739125" opacity="1.0" transform="rotate(1292.1139430284857,128.0,128.0)" width="26.086956521739125" x="114.95652173913044" y="114.95652173913044" /><rect fill="rgb(255,168,0)" height="21.739130434782624" opacity="1.0" transform="rotate(1312.6236881559219,128.0,128.0)" width="21.739130434782624" x="117.13043478260869" y="117.13043478260869" /><rect fill="rgb(0,0,0)" height="17.39130434782612" opacity="1.0" transform="rotate(1333.133433283358,128.0,128.0)" width="17.39130434782612" x="119.30434782608694" y="119.30434782608694" /><rect fill="rgb(255,168,0)" height="13.043478260869563" opacity="1.0" transform="rotate(1353.6431784107945,128.0,128.0)" width="13.043478260869563" x="121.47826086956522" y="121.47826086956522" /><rect fill="rgb(0,0,0)" height="8.69565217391306" opacity="1.0" transform="rotate(1374.1529235382307,128.0,128.0)" width="8.69565217391306" x="123.65217391304347" y="123.65217391304347" /><rect fill="rgb(255,168,0)" height="4.347826086956559" opacity="1.0" transform="rotate(1394.662668665667,128.0,128.0)" width="4.347826086956559" x="125.82608695652172" y="125.82608695652172" /><rect fill="rgb(0,0,0)" height="0.0" opacity="1.0" transform="rotate(1415.1724137931033,128.0,128.0)" width="0.0" x="128.0" y="128.0" /></svg>