<?xml version="1.0" encoding="utf-8" ?>
<svg baseProfile="full" height="256" version="1.1" width="256" xmlns="http://www.w3.org/2000/svg" xmlns:ev="http://www.w3.org/2001/xml-events" xmlns:xlink="http://www.w3.org/1999/xlink"><defs /><rect fill="pink" height="100%" width="100%" x="0" y="0" /><rect fill="rgb(255,168,0)" height="256.0" opacity="1.0" transform="rotate(0.0,128.0,128.0)" width="256.0" x="0.0" y="0.0" /><rect fill="rgb(0,0,0)" height="252.28985507246378" opacity="1.0" transform="rotate(28.065967016491754,128.0,128.0)" width="252.28985507246378" x="1.85507246376811" y="1.85507246376811" /><rect fill="rgb(255,168,0)" height="248.57971014492753" opacity="1.0" transform="rotate(56.13193403298351,128.0,128.0)" width="248.57971014492753" x="3.710144927536234" y="3.710144927536234" /><rect fill="rgb(0,0,0)" height="244.8695652173913" opacity="1.0" transform="rotate(84.19790104947526,128.0,128.0)" width="244.8695652173913" x="5.565217391304344" y="5.565217391304344" /><rect fill="rgb(255,168,0)" height="241.15942028985506" opacity="1.0" transform="rotate(112.26386806596702,128.0,128.0)" width="241.15942028985506" x="7.420289855072468" y="7.420289855072468" /><rect fill="rgb(0,0,0)" height="237.44927536231884" opacity="1.0" transform="rotate(140.32983508245877,128.0,128.0)" width="237.44927536231884" x="9.275362318840578" y="9.275362318840578" /><rect fill="rgb(255,168,0)" height="233.73913043478262" opacity="1.0" transform="rotate(168.39580209895053,128.0,128.0)" width="233.73913043478262" x="11.130434782608688" y="11.130434782608688" /><rect fill="rgb(0,0,0)" height="230.02898550724638" opacity="1.0" transform="rotate(196.46176911544228,128.0,128.0)" width="230.02898550724638" x="12.985507246376812" y="12.985507246376812" /><rect fill="rgb(255,168,0)" height="226.31884057971016" opacity="1.0" transform="rotate(224.52773613193403,128.0,128.0)" width="226.31884057971016" x="14.840579710144922" y="14.840579710144922" /><rect fill="rgb(0,0,0)" height="222.6086956521739" opacity="1.0" transform="rotate(252.5937031484258,128.0,128.0)" width="222.6086956521739" x="16.695652173913047" y="16.695652173913047" /><rect fill="rgb(255,168,0)" height="218.8985507246377" opacity="1.0" transform="rotate(280.65967016491754,128.0,128.0)" width="218.8985507246377" x="18.550724637681157" y="18.550724637681157" /><rect fill="rgb(0,0,0)" height="215.18840579710144" opacity="1.0" transform="rotate(308.7256371814093,128.0,128.0)" width="215.18840579710144" x="20.40579710144928" y="20.40579710144928" /><rect fill="rgb(255,168,0)" height="211.47826086956522" opacity="1.0" transform="rotate(336.79160419790105,128.0,128.0)" width="211.47826086956522" x="22.26086956521739" y="22.26086956521739" /><rect fill="rgb(0,0,0)" height="207.768115942029" opacity="1.0" transform="rotate(364.8575712143928,128.0,128.0)" width="207.768115942029" x="24.1159420289855" y="24.1159420289855" /><rect fill="rgb(255,168,0)" height="204.05797101449275" opacity="1.0" transform="rotate(392.92353823088456,128.0,128.0)" width="204.05797101449275" x="25.971014492753625" y="25.971014492753625" /><rect fill="rgb(0,0,0)" height="200.34782608695653" opacity="1.0" transform="rotate(420.9895052473763,128.0,128.0)" width="200.34782608695653" x="27.826086956521735" y="27.826086956521735" /><rect fill="rgb(255,168,0)" height="196.63768115942028" opacity="1.0" transform="rotate(449.05547226386807,128.0,128.0)" width="196.63768115942028" x="29.68115942028986" y="29.68115942028986" /><rect fill="rgb(0,0,0)" height="192.92753623188406" opacity="1.0" transform="rotate(477.1214392803598,128.0,128.0)" width="192.92753623188406" x="31.53623188405797" y="31.53623188405797" /><rect fill="rgb(255,168,0)" height="189.2173913043478" opacity="1.0" transform="rotate(505.1874062968516,128.0,128.0)" width="189.2173913043478" x="33.39130434782609" y="33.39130434782609" /><rect fill="rgb(0,0,0)" height="185.5072463768116" opacity="1.0" transform="rotate(533.2533733133433,128.0,128.0)" width="185.5072463768116" x="35.2463768115942" y="35.2463768115942" /><rect fill="rgb(255,168,0)" height="181.79710144927537" opacity="1.0" transform="rotate(561.3193403298351,128.0,128.0)" width="181.79710144927537" x="37.10144927536231" y="37.10144927536231" /><rect fill="rgb(0,0,0)" height="178.08695652173913" opacity="1.0" transform="rotate(589.3853073463268,128.0,128.0)" width="178.08695652173913" x="38.95652173913044" y="38.95652173913044" /><rect fill="rgb(255,168,0)" height="174.37681159420288" opacity="1.0" transform="rotate(617.4512743628186,128.0,128.0)" width="174.37681159420288" x="40.81159420289856" y="40.81159420289856" /><rect fill="rgb(0,0,0)" height="170.66666666666669" opacity="1.0" transform="rotate(645.5172413793103,128.0,128.0)" width="170.66666666666669" x="42.66666666666666" y="42.66666666666666" /><rect fill="rgb(255,168,0)" height="166.95652173913044" opacity="1.0" transform="rotate(673.5832083958021,128.0,128.0)" width="166.95652173913044" x="44.52173913043478" y="44.52173913043478" /><rect fill="rgb(0,0,0)" height="163.2463768115942" opacity="1.0" transform="rotate(701.6491754122939,128.0,128.0)" width="163.2463768115942" x="46.376811594202906" y="46.376811594202906" /><rect fill="rgb(255,168,0)" height="159.53623188405797" opacity="1.0" transform="rotate(729.7151424287856,128.0,128.0)" width="159.53623188405797" x="48.231884057971016" y="48.231884057971016" /><rect fill="rgb(0,0,0)" height="155.82608695652175" opacity="1.0" transform="rotate(757.7811094452774,128.0,128.0)" width="155.82608695652175" x="50.086956521739125" y="50.086956521739125" /><rect fill="rgb(255,168,0)" height="152.1159420289855" opacity="1.0" transform="rotate(785.8470764617691,128.0,128.0)" width="152.1159420289855" x="51.94202898550725" y="51.94202898550725" /><rect fill="rgb(0,0,0)" height="148.40579710144928" opacity="1.0" transform="rotate(813.9130434782609,128.0,128.0)" width="148.40579710144928" x="53.79710144927536" y="53.79710144927536" /><rect fill="rgb(255,168,0)" height="144.69565217391306" opacity="1.0" transform="rotate(841.9790104947526,128.0,128.0)" width="144.69565217391306" x="55.65217391304347" y="55.65217391304347" /><rect fill="rgb(0,0,0)" height="140.9855072463768" opacity="1.0" transform="rotate(870.0449775112444,128.0,128.0)" width="140.9855072463768" x="57.507246376811594" y="57.507246376811594" /><rect fill="rgb(255,168,0)" height="137.27536231884056" opacity="1.0" transform="rotate(898.1109445277361,128.0,128.0)" width="137.27536231884056" x="59.36231884057972" y="59.36231884057972" /><rect fill="rgb(0,0,0)" height="133.56521739130434" opacity="1.0" transform="rotate(926.1769115442279,128.0,128.0)" width="133.56521739130434" x="61.21739130434783" y="61.21739130434783" /><rect fill="rgb(255,168,0)" height="129.85507246376812" opacity="1.0" transform="rotate(954.2428785607196,128.0,128.0)" width="129.85507246376812" x="63.07246376811594" y="63.07246376811594" /><rect fill="rgb(0,0,0)" height="126.14492753623188" opacity="1.0" transform="rotate(982.3088455772114,128.0,128.0)" width="126.14492753623188" x="64.92753623188406" y="64.92753623188406" /><rect fill="rgb(255,168,0)" height="122.43478260869566" opacity="1.0" transform="rotate(1010.3748125937032,128.0,128.0)" width="122.43478260869566" x="66.78260869565217" y="66.78260869565217" /><rect fill="rgb(0,0,0)" height="118.72463768115941" opacity="1.0" transform="rotate(1038.440779610195,128.0,128.0)" width="118.72463768115941" x="68.6376811594203" y="68.6376811594203" /><rect fill="rgb(255,168,0)" height="115.01449275362319" opacity="1.0" transform="rotate(1066.5067466266867,128.0,128.0)" width="115.01449275362319" x="70.4927536231884" y="70.4927536231884" /><rect fill="rgb(0,0,0)" height="111.30434782608697" opacity="1.0" transform="rotate(1094.5727136431783,128.0,128.0)" width="111.30434782608697" x="72.34782608695652" y="72.34782608695652" /><rect fill="rgb(255,168,0)" height="107.59420289855072" opacity="1.0" transform="rotate(1122.6386806596702,128.0,128.0)" width="107.59420289855072" x="74.20289855072464" y="74.20289855072464" /><rect fill="rgb(0,0,0)" height="103.8840579710145" opacity="1.0" transform="rotate(1150.704647676162,128.0,128.0)" width="103.8840579710145" x="76.05797101449275" y="76.05797101449275" /><rect fill="rgb(255,168,0)" height="100.17391304347825" opacity="1.0" transform="rotate(1178.7706146926537,128.0,128.0)" width="100.17391304347825" x="77.91304347826087" y="77.91304347826087" /><rect fill="rgb(0,0,0)" height="96.46376811594203" opacity="1.0" transform="rotate(1206.8365817091453,128.0,128.0)" width="96.46376811594203" x="79.76811594202898" y="79.76811594202898" /><rect fill="rgb(255,168,0)" height="92.75362318840578" opacity="1.0" transform="rotate(1234.9025487256372,128.0,128.0)" width="92.75362318840578" x="81.62318840579711" y="81.62318840579711" /><rect fill="rgb(0,0,0)" height="89.04347826086956" opacity="1.0" transform="rotate(1262.968515742129,128.0,128.0)" width="89.04347826086956" x="83.47826086956522" y="83.47826086956522" /><rect fill="rgb(255,168,0)" height="85.33333333333334" opacity="1.0" transform="rotate(1291.0344827586207,128.0,128.0)" width="85.33333333333334" x="85.33333333333333" y="85.33333333333333" /><rect fill="rgb(0,0,0)" height="81.6231884057971" opacity="1.0" transform="rotate(1319.1004497751123,128.0,128.0)" width="81.6231884057971" x="87.18840579710145" y="87.18840579710145" /><rect fill="rgb(255,168,0)" height="77.91304347826087" opacity="1.0" transform="rotate(1347.1664167916042,128.0,128.0)" width="77.91304347826087" x="89.04347826086956" y="89.04347826086956" /><rect fill="rgb(0,0,0)" height="74.20289855072463" opacity="1.0" transform="rotate(1375.232383808096,128.0,128.0)" width="74.20289855072463" x="90.89855072463769" y="90.89855072463769" /><rect fill="rgb(255,168,0)" height="70.4927536231884" opacity="1.0" transform="rotate(1403.2983508245877,128.0,128.0)" width="70.4927536231884" x="92.7536231884058" y="92.7536231884058" /><rect fill="rgb(0,0,0)" height="66.78260869565216" opacity="1.0" transform="rotate(1431.3643178410794,128.0,128.0)" width="66.78260869565216" x="94.60869565217392" y="94.60869565217392" /><rect fill="rgb(255,168,0)" height="63.07246376811594" opacity="1.0" transform="rotate(1459.4302848575712,128.0,128.0)" width="63.07246376811594" x="96.46376811594203" y="96.46376811594203" /><rect fill="rgb(0,0,0)" height="59.36231884057972" opacity="1.0" transform="rotate(1487.496251874063,128.0,128.0)" width="59.36231884057972" x="98.31884057971014" y="98.31884057971014" /><rect fill="rgb(255,168,0)" height="55.65217391304347" opacity="1.0" transform="rotate(1515.5622188905547,128.0,128.0)" width="55.65217391304347" x="100.17391304347827" y="100.17391304347827" /><rect fill="rgb(0,0,0)" height="51.94202898550725" opacity="1.0" transform="rotate(1543.6281859070464,128.0,128.0)" width="51.94202898550725" x="102.02898550724638" y="102.02898550724638" /><rect fill="rgb(255,168,0)" height="48.231884057971" opacity="1.0" transform="rotate(1571.6941529235382,128.0,128.0)" width="48.231884057971" x="103.8840579710145" y="103.8840579710145" /><rect fill="rgb(0,0,0)" height="44.52173913043478" opacity="1.0" transform="rotate(1599.76011994003,128.0,128.0)" width="44.52173913043478" x="105.73913043478261" y="105.73913043478261" /><rect fill="rgb(255,168,0)" height="40.81159420289856" opacity="1.0" transform="rotate(1627.8260869565217,128.0,128.0)" width="40.81159420289856" x="107.59420289855072" y="107.59420289855072" /><rect fill="rgb(0,0,0)" height="37.10144927536231" opacity="1.0" transform="rotate(1655.8920539730134,128.0,128.0)" width="37.10144927536231" x="109.44927536231884" y="109.44927536231884" /><rect fill="rgb(255,168,0)" height="33.39130434782609" opacity="1.0" transform="rotate(1683.9580209895053,128.0,128.0)" width="33.39130434782609" x="111.30434782608695" y="111.30434782608695" /><rect fill="rgb(0,0,0)" height="29.681159420289845" opacity="1.0" transform="rotate(1712.0239880059971,128.0,128.0)" width="29.681159420289845" x="113.15942028985508" y="113.15942028985508" /><rect fill="rgb(255,168,0)" height="25.971014492753625" opacity="1.0" transform="rotate(1740.0899550224888,128.0,128.0)" width="25.971014492753625" x="115.01449275362319" y="115.01449275362319" /><rect fill="rgb(0,0,0)" height="22.260869565217376" opacity="1.0" transform="rotate(1768.1559220389804,128.0,128.0)" width="22.260869565217376" x="116.86956521739131" y="116.86956521739131" /><rect fill="rgb(255,168,0)" height="18.550724637681157" opacity="1.0" transform="rotate(1796.2218890554723,128.0,128.0)" width="18.550724637681157" x="118.72463768115942" y="118.72463768115942" /><rect fill="rgb(0,0,0)" height="14.840579710144937" opacity="1.0" transform="rotate(1824.2878560719641,128.0,128.0)" width="14.840579710144937" x="120.57971014492753" y="120.57971014492753" /><rect fill="rgb(255,168,0)" height="11.130434782608688" opacity="1.0" transform="rotate(1852.3538230884558,128.0,128.0)" width="11.130434782608688" x="122.43478260869566" y="122.43478260869566" /><rect fill="rgb(0,0,0)" height="7.420289855072468" opacity="1.0" transform="rotate(1880.4197901049474,128.0,128.0)" width="7.420289855072468" x="124.28985507246377" y="124.28985507246377" /><rect fill="rgb(255,168,0)" height="3.71014492753622" opacity="1.0" transform="rotate(1908.4857571214393,128.0,128.0)" width="3.71014492753622" x="126.14492753623189" y="126.14492753623189" /><rect fill="rgb(0,0,0)" height="0.0" opacity="1.0" transform="rotate(1936.551724137931,128.0,128.0)" width="0.0" x="128.0" y="128.0" /></svg>