<?xml version="1.0" encoding="utf-8" ?>
<svg baseProfile="full" height="256" version="1.1" width="256" xmlns="http://www.w3.org/2000/svg" xmlns:ev="http://www.w3.org/2001/xml-events" xmlns:xlink="http://www.w3.org/1999/xlink"><defs /><rect fill="pink" height="100%" width="100%" x="0" y="0" /><rect fill="rgb(153,15,15)" height="300.0" opacity="1.0" transform="rotate(0.0,128.0,128.0)" width="300.0" x="-22.0" y="-22.0" /><rect fill="rgb(151,14,14)" height="295.6521739130435" opacity="0.9855072463768116" transform="rotate(2.608695652173913,128.0,128.0)" width="295.6521739130435" x="-19.82608695652175" y="-19.82608695652175" /><rect fill="rgb(149,14,14)" height="291.30434782608694" opacity="0.9710144927536232" transform="rotate(5.217391304347826,128.0,128.0)" width="291.30434782608694" x="-17.65217391304347" y="-17.65217391304347" /><rect fill="rgb(147,14,14)" height="286.95652173913044" opacity="0.9565217391304348" transform="rotate(7.826086956521739,128.0,128.0)" width="286.95652173913044" x="-15.478260869565219" y="-15.478260869565219" /><rect fill="rgb(145,13,13)" height="282.60869565217394" opacity="0.9420289855072463" transform="rotate(10.434782608695652,128.0,128.0)" width="282.60869565217394" x="-13.304347826086968" y="-13.304347826086968" /><rect fill="rgb(143,13,13)" height="278.2608695652174" opacity="0.927536231884058" transform="rotate(13.043478260869566,128.0,128.0)" width="278.2608695652174" x="-11.130434782608688" y="-11.130434782608688" /><rect fill="rgb(141,12,12)" height="273.9130434782609" opacity="0.9130434782608696" transform="rotate(15.652173913043478,128.0,128.0)" width="273.9130434782609" x="-8.956521739130437" y="-8.956521739130437" /><rect fill="rgb(140,12,12)" height="269.5652173913044" opacity="0.8985507246376812" transform="rotate(18.26086956521739,128.0,128.0)" width="269.5652173913044" x="-6.782608695652186" y="-6.782608695652186" /><rect fill="rgb(138,12,12)" height="265.2173913043478" opacity="0.8840579710144928" transform="rotate(20.869565217391305,128.0,128.0)" width="265.2173913043478" x="-4.608695652173907" y="-4.608695652173907" /><rect fill="rgb(136,11,11)" height="260.8695652173913" opacity="0.8695652173913043" transform="rotate(23.47826086956522,128.0,128.0)" width="260.8695652173913" x="-2.434782608695656" y="-2.434782608695656" /><rect fill="rgb(134,11,11)" height="256.52173913043475" opacity="0.855072463768116" transform="rotate(26.086956521739133,128.0,128.0)" width="256.52173913043475" x="-0.2608695652173765" y="-0.2608695652173765" /><rect fill="rgb(132,11,11)" height="252.17391304347825" opacity="0.8405797101449275" transform="rotate(28.695652173913043,128.0,128.0)" width="252.17391304347825" x="1.9130434782608745" y="1.9130434782608745" /><rect fill="rgb(130,10,10)" height="247.82608695652175" opacity="0.8260869565217391" transform="rotate(31.304347826086957,128.0,128.0)" width="247.82608695652175" x="4.0869565217391255" y="4.0869565217391255" /><rect fill="rgb(128,10,10)" height="243.47826086956522" opacity="0.8115942028985508" transform="rotate(33.91304347826087,128.0,128.0)" width="243.47826086956522" x="6.260869565217391" y="6.260869565217391" /><rect fill="rgb(127,10,10)" height="239.1304347826087" opacity="0.7971014492753623" transform="rotate(36.52173913043478,128.0,128.0)" width="239.1304347826087" x="8.434782608695656" y="8.434782608695656" /><rect fill="rgb(125,9,9)" height="234.7826086956522" opacity="0.782608695652174" transform="rotate(39.130434782608695,128.0,128.0)" width="234.7826086956522" x="10.608695652173907" y="10.608695652173907" /><rect fill="rgb(123,9,9)" height="230.43478260869566" opacity="0.7681159420289855" transform="rotate(41.73913043478261,128.0,128.0)" width="230.43478260869566" x="12.782608695652172" y="12.782608695652172" /><rect fill="rgb(121,9,9)" height="226.08695652173913" opacity="0.7536231884057971" transform="rotate(44.34782608695652,128.0,128.0)" width="226.08695652173913" x="14.956521739130437" y="14.956521739130437" /><rect fill="rgb(119,8,8)" height="221.73913043478262" opacity="0.7391304347826086" transform="rotate(46.95652173913044,128.0,128.0)" width="221.73913043478262" x="17.13043478260869" y="17.13043478260869" /><rect fill="rgb(117,8,8)" height="217.3913043478261" opacity="0.7246376811594203" transform="rotate(49.56521739130435,128.0,128.0)" width="217.3913043478261" x="19.304347826086953" y="19.304347826086953" /><rect fill="rgb(116,8,8)" height="213.04347826086956" opacity="0.7101449275362319" transform="rotate(52.173913043478265,128.0,128.0)" width="213.04347826086956" x="21.47826086956522" y="21.47826086956522" /><rect fill="rgb(114,7,7)" height="208.69565217391306" opacity="0.6956521739130435" transform="rotate(54.78260869565217,128.0,128.0)" width="208.69565217391306" x="23.65217391304347" y="23.65217391304347" /><rect fill="rgb(112,7,7)" height="204.34782608695653" opacity="0.681159420289855" transform="rotate(57.391304347826086,128.0,128.0)" width="204.34782608695653" x="25.826086956521735" y="25.826086956521735" /><rect fill="rgb(110,7,7)" height="200.0" opacity="0.6666666666666667" transform="rotate(60.0,128.0,128.0)" width="200.0" x="28.0" y="28.0" /><rect fill="rgb(108,7,7)" height="195.6521739130435" opacity="0.6521739130434783" transform="rotate(62.608695652173914,128.0,128.0)" width="195.6521739130435" x="30.17391304347825" y="30.17391304347825" /><rect fill="rgb(106,6,6)" height="191.30434782608697" opacity="0.6376811594202898" transform="rotate(65.21739130434783,128.0,128.0)" width="191.30434782608697" x="32.347826086956516" y="32.347826086956516" /><rect fill="rgb(104,6,6)" height="186.95652173913044" opacity="0.6231884057971014" transform="rotate(67.82608695652173,128.0,128.0)" width="186.95652173913044" x="34.52173913043478" y="34.52173913043478" /><rect fill="rgb(103,6,6)" height="182.60869565217394" opacity="0.6086956521739131" transform="rotate(70.43478260869566,128.0,128.0)" width="182.60869565217394" x="36.69565217391303" y="36.69565217391303" /><rect fill="rgb(101,6,6)" height="178.2608695652174" opacity="0.5942028985507246" transform="rotate(73.04347826086956,128.0,128.0)" width="178.2608695652174" x="38.8695652173913" y="38.8695652173913" /><rect fill="rgb(99,5,5)" height="173.91304347826087" opacity="0.5797101449275363" transform="rotate(75.65217391304348,128.0,128.0)" width="173.91304347826087" x="41.04347826086956" y="41.04347826086956" /><rect fill="rgb(97,5,5)" height="169.56521739130434" opacity="0.5652173913043479" transform="rotate(78.26086956521739,128.0,128.0)" width="169.56521739130434" x="43.21739130434783" y="43.21739130434783" /><rect fill="rgb(95,5,5)" height="165.21739130434784" opacity="0.5507246376811594" transform="rotate(80.86956521739131,128.0,128.0)" width="165.21739130434784" x="45.39130434782608" y="45.39130434782608" /><rect fill="rgb(93,5,5)" height="160.8695652173913" opacity="0.536231884057971" transform="rotate(83.47826086956522,128.0,128.0)" width="160.8695652173913" x="47.565217391304344" y="47.565217391304344" /><rect fill="rgb(92,4,4)" height="156.52173913043478" opacity="0.5217391304347826" transform="rotate(86.08695652173913,128.0,128.0)" width="156.52173913043478" x="49.73913043478261" y="49.73913043478261" /><rect fill="rgb(90,4,4)" height="152.17391304347828" opacity="0.5072463768115942" transform="rotate(88.69565217391305,128.0,128.0)" width="152.17391304347828" x="51.91304347826086" y="51.91304347826086" /><rect fill="rgb(88,4,4)" height="147.82608695652175" opacity="0.49275362318840576" transform="rotate(91.30434782608695,128.0,128.0)" width="147.82608695652175" x="54.086956521739125" y="54.086956521739125" /><rect fill="rgb(86,4,4)" height="143.47826086956522" opacity="0.4782608695652174" transform="rotate(93.91304347826087,128.0,128.0)" width="143.47826086956522" x="56.26086956521739" y="56.26086956521739" /><rect fill="rgb(84,3,3)" height="139.13043478260872" opacity="0.46376811594202894" transform="rotate(96.52173913043478,128.0,128.0)" width="139.13043478260872" x="58.43478260869564" y="58.43478260869564" /><rect fill="rgb(82,3,3)" height="134.7826086956522" opacity="0.4492753623188406" transform="rotate(99.1304347826087,128.0,128.0)" width="134.7826086956522" x="60.60869565217391" y="60.60869565217391" /><rect fill="rgb(80,3,3)" height="130.43478260869566" opacity="0.4347826086956522" transform="rotate(101.73913043478261,128.0,128.0)" width="130.43478260869566" x="62.78260869565217" y="62.78260869565217" /><rect fill="rgb(79,3,3)" height="126.08695652173913" opacity="0.42028985507246375" transform="rotate(104.34782608695653,128.0,128.0)" width="126.08695652173913" x="64.95652173913044" y="64.95652173913044" /><rect fill="rgb(77,3,3)" height="121.73913043478262" opacity="0.4057971014492754" transform="rotate(106.95652173913044,128.0,128.0)" width="121.73913043478262" x="67.13043478260869" y="67.13043478260869" /><rect fill="rgb(75,2,2)" height="117.3913043478261" opacity="0.3913043478260869" transform="rotate(109.56521739130434,128.0,128.0)" width="117.3913043478261" x="69.30434782608695" y="69.30434782608695" /><rect fill="rgb(73,2,2)" height="113.04347826086956" opacity="0.37681159420289856" transform="rotate(112.17391304347827,128.0,128.0)" width="113.04347826086956" x="71.47826086956522" y="71.47826086956522" /><rect fill="rgb(71,2,2)" height="108.69565217391306" opacity="0.3623188405797101" transform="rotate(114.78260869565217,128.0,128.0)" width="108.69565217391306" x="73.65217391304347" y="73.65217391304347" /><rect fill="rgb(69,2,2)" height="104.34782608695653" opacity="0.34782608695652173" transform="rotate(117.3913043478261,128.0,128.0)" width="104.34782608695653" x="75.82608695652173" y="75.82608695652173" /><rect fill="rgb(68,2,2)" height="100.0" opacity="0.33333333333333337" transform="rotate(120.0,128.0,128.0)" width="100.0" x="78.0" y="78.0" /><rect fill="rgb(66,2,2)" height="95.6521739130435" opacity="0.3188405797101449" transform="rotate(122.60869565217392,128.0,128.0)" width="95.6521739130435" x="80.17391304347825" y="80.17391304347825" /><rect fill="rgb(64,1,1)" height="91.30434782608697" opacity="0.30434782608695654" transform="rotate(125.21739130434783,128.0,128.0)" width="91.30434782608697" x="82.34782608695652" y="82.34782608695652" /><rect fill="rgb(62,1,1)" height="86.95652173913044" opacity="0.28985507246376807" transform="rotate(127.82608695652173,128.0,128.0)" width="86.95652173913044" x="84.52173913043478" y="84.52173913043478" /><rect fill="rgb(60,1,1)" height="82.60869565217394" opacity="0.2753623188405797" transform="rotate(130.43478260869566,128.0,128.0)" width="82.60869565217394" x="86.69565217391303" y="86.69565217391303" /><rect fill="rgb(58,1,1)" height="78.2608695652174" opacity="0.26086956521739124" transform="rotate(133.04347826086956,128.0,128.0)" width="78.2608695652174" x="88.8695652173913" y="88.8695652173913" /><rect fill="rgb(56,1,1)" height="73.91304347826087" opacity="0.24637681159420288" transform="rotate(135.65217391304347,128.0,128.0)" width="73.91304347826087" x="91.04347826086956" y="91.04347826086956" /><rect fill="rgb(55,1,1)" height="69.56521739130437" opacity="0.23188405797101452" transform="rotate(138.2608695652174,128.0,128.0)" width="69.56521739130437" x="93.21739130434781" y="93.21739130434781" /><rect fill="rgb(53,1,1)" height="65.21739130434784" opacity="0.21739130434782605" transform="rotate(140.8695652173913,128.0,128.0)" width="65.21739130434784" x="95.39130434782608" y="95.39130434782608" /><rect fill="rgb(51,1,1)" height="60.86956521739131" opacity="0.2028985507246377" transform="rotate(143.47826086956522,128.0,128.0)" width="60.86956521739131" x="97.56521739130434" y="97.56521739130434" /><rect fill="rgb(49,0,0)" height="56.52173913043481" opacity="0.18840579710144922" transform="rotate(146.08695652173913,128.0,128.0)" width="56.52173913043481" x="99.7391304347826" y="99.7391304347826" /><rect fill="rgb(47,0,0)" height="52.17391304347828" opacity="0.17391304347826086" transform="rotate(148.69565217391303,128.0,128.0)" width="52.17391304347828" x="101.91304347826086" y="101.91304347826086" /><rect fill="rgb(45,0,0)" height="47.82608695652175" opacity="0.1594202898550725" transform="rotate(151.30434782608697,128.0,128.0)" width="47.82608695652175" x="104.08695652173913" y="104.08695652173913" /><rect fill="rgb(43,0,0)" height="43.47826086956525" opacity="0.14492753623188404" transform="rotate(153.91304347826087,128.0,128.0)" width="43.47826086956525" x="106.26086956521738" y="106.26086956521738" /><rect fill="rgb(42,0,0)" height="39.13043478260869" opacity="0.13043478260869568" transform="rotate(156.52173913043478,128.0,128.0)" width="39.13043478260869" x="108.43478260869566" y="108.43478260869566" /><rect fill="rgb(40,0,0)" height="34.782608695652186" opacity="0.1159420289855072" transform="rotate(159.1304347826087,128.0,128.0)" width="34.782608695652186" x="110.6086956521739" y="110.6086956521739" /><rect fill="rgb(38,0,0)" height="30.434782608695684" opacity="0.10144927536231885" transform="rotate(161.73913043478262,128.0,128.0)" width="30.434782608695684" x="112.78260869565216" y="112.78260869565216" /><rect fill="rgb(36,0,0)" height="26.086956521739125" opacity="0.08695652173913038" transform="rotate(164.34782608695653,128.0,128.0)" width="26.086956521739125" x="114.95652173913044" y="114.95652173913044" /><rect fill="rgb(34,0,0)" height="21.739130434782624" opacity="0.07246376811594202" transform="rotate(166.95652173913044,128.0,128.0)" width="21.739130434782624" x="117.13043478260869" y="117.13043478260869" /><rect fill="rgb(32,0,0)" height="17.39130434782612" opacity="0.05797101449275366" transform="rotate(169.56521739130434,128.0,128.0)" width="17.39130434782612" x="119.30434782608694" y="119.30434782608694" /><rect fill="rgb(31,0,0)" height="13.043478260869563" opacity="0.04347826086956519" transform="rotate(172.17391304347825,128.0,128.0)" width="13.043478260869563" x="121.47826086956522" y="121.47826086956522" /><rect fill="rgb(29,0,0)" height="8.69565217391306" opacity="0.02898550724637683" transform="rotate(174.7826086956522,128.0,128.0)" width="8.69565217391306" x="123.65217391304347" y="123.65217391304347" /><rect fill="rgb(27,0,0)" height="4.347826086956559" opacity="0.01449275362318836" transform="rotate(177.3913043478261,128.0,128.0)" width="4.347826086956559" x="125.82608695652172" y="125.82608695652172" /><rect fill="rgb(25,0,0)" height="0.0" opacity="0.0" transform="rotate(180.0,128.0,128.0)" width="0.0" x="128.0" y="128.0" /></svg>