<?xml version="1.0" encoding="utf-8" ?>
<svg baseProfile="full" height="256" version="1.1" width="256" xmlns="http://www.w3.org/2000/svg" xmlns:ev="http://www.w3.org/2001/xml-events" xmlns:xlink="http://www.w3.org/1999/xlink"><defs /><rect fill="pink" height="100%" width="100%" x="0" y="0" /><rect fill="rgb(0,0,0)" height="256.0" opacity="1.0" transform="rotate(0.0,128.0,128.0)" width="256.0" x="0.0" y="0.0" /><rect fill="rgb(1,3,1)" height="252.28985507246378" opacity="1.0" transform="rotate(1.373484637917834,128.0,128.0)" width="252.28985507246378" x="1.85507246376811" y="1.85507246376811" /><rect fill="rgb(2,7,2)" height="248.57971014492753" opacity="1.0" transform="rotate(2.929758443017731,128.0,128.0)" width="248.57971014492753" x="3.710144927536234" y="3.710144927536234" /><rect fill="rgb(3,11,3)" height="244.8695652173913" opacity="1.0" transform="rotate(4.608531727396476,128.0,128.0)" width="244.8695652173913" x="5.565217391304344" y="5.565217391304344" /><rect fill="rgb(4,14,4)" height="241.15942028985506" opacity="1.0" transform="rotate(6.381706967042473,128.0,128.0)" width="241.15942028985506" x="7.420289855072468" y="7.420289855072468" /><rect fill="rgb(5,18,5)" height="237.44927536231884" opacity="1.0" transform="rotate(8.232560520256332,128.0,128.0)" width="237.44927536231884" x="9.275362318840578" y="9.275362318840578" /><rect fill="rgb(6,22,6)" height="233.73913043478262" opacity="1.0" transform="rotate(10.1498594696494,128.0,128.0)" width="233.73913043478262" x="11.130434782608688" y="11.130434782608688" /><rect fill="rgb(8,25,7)" height="230.02898550724638" opacity="1.0" transform="rotate(12.125479630362324,128.0,128.0)" width="230.02898550724638" x="12.985507246376812" y="12.985507246376812" /><rect fill="rgb(9,29,8)" height="226.31884057971016" opacity="1.0" transform="rotate(14.153241799001195,128.0,128.0)" width="226.31884057971016" x="14.840579710144922" y="14.840579710144922" /><rect fill="rgb(10,33,9)" height="222.6086956521739" opacity="1.0" transform="rotate(16.228270836265956,128.0,128.0)" width="222.6086956521739" x="16.695652173913047" y="16.695652173913047" /><rect fill="rgb(11,36,11)" height="218.8985507246377" opacity="1.0" transform="rotate(18.34661171300699,128.0,128.0)" width="218.8985507246377" x="18.550724637681157" y="18.550724637681157" /><rect fill="rgb(12,40,12)" height="215.18840579710144" opacity="1.0" transform="rotate(20.50498460914382,128.0,128.0)" width="215.18840579710144" x="20.40579710144928" y="20.40579710144928" /><rect fill="rgb(13,44,13)" height="211.47826086956522" opacity="1.0" transform="rotate(22.700620908666597,128.0,128.0)" width="211.47826086956522" x="22.26086956521739" y="22.26086956521739" /><rect fill="rgb(15,48,14)" height="207.768115942029" opacity="1.0" transform="rotate(24.93114900026191,128.0,128.0)" width="207.768115942029" x="24.1159420289855" y="24.1159420289855" /><rect fill="rgb(16,51,15)" height="204.05797101449275" opacity="1.0" transform="rotate(27.194512174301106,128.0,128.0)" width="204.05797101449275" x="25.971014492753625" y="25.971014492753625" /><rect fill="rgb(17,55,16)" height="200.34782608695653" opacity="1.0" transform="rotate(29.488907996977083,128.0,128.0)" width="200.34782608695653" x="27.826086956521735" y="27.826086956521735" /><rect fill="rgb(18,59,17)" height="196.63768115942028" opacity="1.0" transform="rotate(31.81274251699617,128.0,128.0)" width="196.63768115942028" x="29.68115942028986" y="29.68115942028986" /><rect fill="rgb(19,62,18)" height="192.92753623188406" opacity="1.0" transform="rotate(34.16459499535579,128.0,128.0)" width="192.92753623188406" x="31.53623188405797" y="31.53623188405797" /><rect fill="rgb(20,66,19)" height="189.2173913043478" opacity="1.0" transform="rotate(36.543190276164204,128.0,128.0)" width="189.2173913043478" x="33.39130434782609" y="33.39130434782609" /><rect fill="rgb(22,70,21)" height="185.5072463768116" opacity="1.0" transform="rotate(38.947376819228126,128.0,128.0)" width="185.5072463768116" x="35.2463768115942" y="35.2463768115942" /><rect fill="rgb(23,73,22)" height="181.79710144927537" opacity="1.0" transform="rotate(41.37610900320195,128.0,128.0)" width="181.79710144927537" x="37.10144927536231" y="37.10144927536231" /><rect fill="rgb(24,77,23)" height="178.08695652173913" opacity="1.0" transform="rotate(43.82843270121146,128.0,128.0)" width="178.08695652173913" x="38.95652173913044" y="38.95652173913044" /><rect fill="rgb(25,81,24)" height="174.37681159420288" opacity="1.0" transform="rotate(46.303473399747375,128.0,128.0)" width="174.37681159420288" x="40.81159420289856" y="40.81159420289856" /><rect fill="rgb(26,85,25)" height="170.66666666666669" opacity="1.0" transform="rotate(48.800426319321296,128.0,128.0)" width="170.66666666666669" x="42.66666666666666" y="42.66666666666666" /><rect fill="rgb(27,88,26)" height="166.95652173913044" opacity="1.0" transform="rotate(51.318548128820254,128.0,128.0)" width="166.95652173913044" x="44.52173913043478" y="44.52173913043478" /><rect fill="rgb(29,92,27)" height="163.2463768115942" opacity="1.0" transform="rotate(53.85714994194518,128.0,128.0)" width="163.2463768115942" x="46.376811594202906" y="46.376811594202906" /><rect fill="rgb(30,96,28)" height="159.53623188405797" opacity="1.0" transform="rotate(56.415591354880306,128.0,128.0)" width="159.53623188405797" x="48.231884057971016" y="48.231884057971016" /><rect fill="rgb(31,99,29)" height="155.82608695652175" opacity="1.0" transform="rotate(58.99327533696812,128.0,128.0)" width="155.82608695652175" x="50.086956521739125" y="50.086956521739125" /><rect fill="rgb(32,103,31)" height="152.1159420289855" opacity="1.0" transform="rotate(61.589643825796394,128.0,128.0)" width="152.1159420289855" x="51.94202898550725" y="51.94202898550725" /><rect fill="rgb(33,107,32)" height="148.40579710144928" opacity="1.0" transform="rotate(64.20417390829317,128.0,128.0)" width="148.40579710144928" x="53.79710144927536" y="53.79710144927536" /><rect fill="rgb(34,110,33)" height="144.69565217391306" opacity="1.0" transform="rotate(66.836374492665,128.0,128.0)" width="144.69565217391306" x="55.65217391304347" y="55.65217391304347" /><rect fill="rgb(35,114,34)" height="140.9855072463768" opacity="1.0" transform="rotate(69.48578339408088,128.0,128.0)" width="140.9855072463768" x="57.507246376811594" y="57.507246376811594" /><rect fill="rgb(37,118,35)" height="137.27536231884056" opacity="1.0" transform="rotate(72.15196477117517,128.0,128.0)" width="137.27536231884056" x="59.36231884057972" y="59.36231884057972" /><rect fill="rgb(38,121,36)" height="133.56521739130434" opacity="1.0" transform="rotate(74.83450686165467,128.0,128.0)" width="133.56521739130434" x="61.21739130434783" y="61.21739130434783" /><rect fill="rgb(39,125,37)" height="129.85507246376812" opacity="1.0" transform="rotate(77.53301997423304,128.0,128.0)" width="129.85507246376812" x="63.07246376811594" y="63.07246376811594" /><rect fill="rgb(40,129,38)" height="126.14492753623188" opacity="1.0" transform="rotate(80.24713470129565,128.0,128.0)" width="126.14492753623188" x="64.92753623188406" y="64.92753623188406" /><rect fill="rgb(41,133,39)" height="122.43478260869566" opacity="1.0" transform="rotate(82.97650032250401,128.0,128.0)" width="122.43478260869566" x="66.78260869565217" y="66.78260869565217" /><rect fill="rgb(42,136,41)" height="118.72463768115941" opacity="1.0" transform="rotate(85.72078337427499,128.0,128.0)" width="118.72463768115941" x="68.6376811594203" y="68.6376811594203" /><rect fill="rgb(44,140,42)" height="115.01449275362319" opacity="1.0" transform="rotate(88.47966636394075,128.0,128.0)" width="115.01449275362319" x="70.4927536231884" y="70.4927536231884" /><rect fill="rgb(45,144,43)" height="111.30434782608697" opacity="1.0" transform="rotate(91.25284661058267,128.0,128.0)" width="111.30434782608697" x="72.34782608695652" y="72.34782608695652" /><rect fill="rgb(46,147,44)" height="107.59420289855072" opacity="1.0" transform="rotate(94.04003519717268,128.0,128.0)" width="107.59420289855072" x="74.20289855072464" y="74.20289855072464" /><rect fill="rgb(47,151,45)" height="103.8840579710145" opacity="1.0" transform="rotate(96.84095602085225,128.0,128.0)" width="103.8840579710145" x="76.05797101449275" y="76.05797101449275" /><rect fill="rgb(48,155,46)" height="100.17391304347825" opacity="1.0" transform="rotate(99.65534493001769,128.0,128.0)" width="100.17391304347825" x="77.91304347826087" y="77.91304347826087" /><rect fill="rgb(49,158,47)" height="96.46376811594203" opacity="1.0" transform="rotate(102.48294893842328,128.0,128.0)" width="96.46376811594203" x="79.76811594202898" y="79.76811594202898" /><rect fill="rgb(51,162,48)" height="92.75362318840578" opacity="1.0" transform="rotate(105.32352550781839,128.0,128.0)" width="92.75362318840578" x="81.62318840579711" y="81.62318840579711" /><rect fill="rgb(52,166,49)" height="89.04347826086956" opacity="1.0" transform="rotate(108.17684189173737,128.0,128.0)" width="89.04347826086956" x="83.47826086956522" y="83.47826086956522" /><rect fill="rgb(53,170,51)" height="85.33333333333334" opacity="1.0" transform="rotate(111.04267453400155,128.0,128.0)" width="85.33333333333334" x="85.33333333333333" y="85.33333333333333" /><rect fill="rgb(54,173,52)" height="81.6231884057971" opacity="1.0" transform="rotate(113.92080851629437,128.0,128.0)" width="81.6231884057971" x="87.18840579710145" y="87.18840579710145" /><rect fill="rgb(55,177,53)" height="77.91304347826087" opacity="1.0" transform="rotate(116.8110370498583,128.0,128.0)" width="77.91304347826087" x="89.04347826086956" y="89.04347826086956" /><rect fill="rgb(56,181,54)" height="74.20289855072463" opacity="1.0" transform="rotate(119.7131610069537,128.0,128.0)" width="74.20289855072463" x="90.89855072463769" y="90.89855072463769" /><rect fill="rgb(58,184,55)" height="70.4927536231884" opacity="1.0" transform="rotate(122.62698848822924,128.0,128.0)" width="70.4927536231884" x="92.7536231884058" y="92.7536231884058" /><rect fill="rgb(59,188,56)" height="66.78260869565216" opacity="1.0" transform="rotate(125.55233442259605,128.0,128.0)" width="66.78260869565216" x="94.60869565217392" y="94.60869565217392" /><rect fill="rgb(60,192,57)" height="63.07246376811594" opacity="1.0" transform="rotate(128.48902019658047,128.0,128.0)" width="63.07246376811594" x="96.46376811594203" y="96.46376811594203" /><rect fill="rgb(61,195,58)" height="59.36231884057972" opacity="1.0" transform="rotate(131.4368733104637,128.0,128.0)" width="59.36231884057972" x="98.31884057971014" y="98.31884057971014" /><rect fill="rgb(62,199,59)" height="55.65217391304347" opacity="1.0" transform="rotate(134.39572705880892,128.0,128.0)" width="55.65217391304347" x="100.17391304347827" y="100.17391304347827" /><rect fill="rgb(63,203,60)" height="51.94202898550725" opacity="1.0" transform="rotate(137.36542023323085,128.0,128.0)" width="51.94202898550725" x="102.02898550724638" y="102.02898550724638" /><rect fill="rgb(64,206,62)" height="48.231884057971" opacity="1.0" transform="rotate(140.34579684548666,128.0,128.0)" width="48.231884057971" x="103.8840579710145" y="103.8840579710145" /><rect fill="rgb(66,210,63)" height="44.52173913043478" opacity="1.0" transform="rotate(143.3367058691642,128.0,128.0)" width="44.52173913043478" x="105.73913043478261" y="105.73913043478261" /><rect fill="rgb(67,214,64)" height="40.81159420289856" opacity="1.0" transform="rotate(146.33800099841727,128.0,128.0)" width="40.81159420289856" x="107.59420289855072" y="107.59420289855072" /><rect fill="rgb(68,218,65)" height="37.10144927536231" opacity="1.0" transform="rotate(149.349540422351,128.0,128.0)" width="37.10144927536231" x="109.44927536231884" y="109.44927536231884" /><rect fill="rgb(69,221,66)" height="33.39130434782609" opacity="1.0" transform="rotate(152.3711866137965,128.0,128.0)" width="33.39130434782609" x="111.30434782608695" y="111.30434782608695" /><rect fill="rgb(70,225,67)" height="29.681159420289845" opacity="1.0" transform="rotate(155.40280613133447,128.0,128.0)" width="29.681159420289845" x="113.15942028985508" y="113.15942028985508" /><rect fill="rgb(71,229,68)" height="25.971014492753625" opacity="1.0" transform="rotate(158.44426943353528,128.0,128.0)" width="25.971014492753625" x="115.01449275362319" y="115.01449275362319" /><rect fill="rgb(73,232,69)" height="22.260869565217376" opacity="1.0" transform="rotate(161.49545070447834,128.0,128.0)" width="22.260869565217376" x="116.86956521739131" y="116.86956521739131" /><rect fill="rgb(74,236,70)" height="18.550724637681157" opacity="1.0" transform="rotate(164.55622768969948,128.0,128.0)" width="18.550724637681157" x="118.72463768115942" y="118.72463768115942" /><rect fill="rgb(75,240,72)" height="14.840579710144937" opacity="1.0" transform="rotate(167.6264815417904,128.0,128.0)" width="14.840579710144937" x="120.57971014492753" y="120.57971014492753" /><rect fill="rgb(76,243,73)" height="11.130434782608688" opacity="1.0" transform="rotate(170.7060966749451,128.0,128.0)" width="11.130434782608688" x="122.43478260869566" y="122.43478260869566" /><rect fill="rgb(77,247,74)" height="7.420289855072468" opacity="1.0" transform="rotate(173.79496062780703,128.0,128.0)" width="7.420289855072468" x="124.28985507246377" y="124.28985507246377" /><rect fill="rgb(78,251,75)" height="3.71014492753622" opacity="1.0" transform="rotate(176.89296393402824,128.0,128.0)" width="3.71014492753622" x="126.14492753623189" y="126.14492753623189" /><rect fill="rgb(80,255,76)" height="0.0" opacity="1.0" transform="rotate(180.0,128.0,128.0)" width="0.0" x="128.0" y="128.0" /></svg>