<?xml version="1.0" encoding="utf-8" ?>
<svg baseProfile="full" height="256" version="1.1" width="256" xmlns="http://www.w3.org/2000/svg" xmlns:ev="http://www.w3.org/2001/xml-events" xmlns:xlink="http://www.w3.org/1999/xlink"><defs /><rect fill="pink" height="100%" width="100%" x="0" y="0" /><rect fill="rgb(0,0,0)" height="300.0" opacity="1" transform="rotate(0.0,128.0,128.0)" width="300.0" x="-22.0" y="-22.0" /><rect fill="rgb(1,2,3)" height="295.6521739130435" opacity="1" transform="rotate(0.08871586591551406,128.0,128.0)" width="295.6521739130435" x="-19.82608695652175" y="-19.82608695652175" /><rect fill="rgb(3,5,7)" height="291.30434782608694" opacity="1" transform="rotate(0.2515487843680398,128.0,128.0)" width="291.30434782608694" x="-17.65217391304347" y="-17.65217391304347" /><rect fill="rgb(5,7,11)" height="286.95652173913044" opacity="1" transform="rotate(0.4884987553575773,128.0,128.0)" width="286.95652173913044" x="-15.478260869565219" y="-15.478260869565219" /><rect fill="rgb(7,10,14)" height="282.60869565217394" opacity="1" transform="rotate(0.7995657788841266,128.0,128.0)" width="282.60869565217394" x="-13.304347826086968" y="-13.304347826086968" /><rect fill="rgb(9,13,18)" height="278.2608695652174" opacity="1" transform="rotate(1.1847498549476878,128.0,128.0)" width="278.2608695652174" x="-11.130434782608688" y="-11.130434782608688" /><rect fill="rgb(12,16,22)" height="273.9130434782609" opacity="1" transform="rotate(1.6440509835482602,128.0,128.0)" width="273.9130434782609" x="-8.956521739130437" y="-8.956521739130437" /><rect fill="rgb(14,18,25)" height="269.5652173913044" opacity="1" transform="rotate(2.177469164685845,128.0,128.0)" width="269.5652173913044" x="-6.782608695652186" y="-6.782608695652186" /><rect fill="rgb(16,21,29)" height="265.2173913043478" opacity="1" transform="rotate(2.785004398360441,128.0,128.0)" width="265.2173913043478" x="-4.608695652173907" y="-4.608695652173907" /><rect fill="rgb(18,24,33)" height="260.8695652173913" opacity="1" transform="rotate(3.4666566845720492,128.0,128.0)" width="260.8695652173913" x="-2.434782608695656" y="-2.434782608695656" /><rect fill="rgb(21,27,36)" height="256.52173913043475" opacity="1" transform="rotate(4.2224260233206685,128.0,128.0)" width="256.52173913043475" x="-0.2608695652173765" y="-0.2608695652173765" /><rect fill="rgb(23,30,40)" height="252.17391304347825" opacity="1" transform="rotate(5.052312414606299,128.0,128.0)" width="252.17391304347825" x="1.9130434782608745" y="1.9130434782608745" /><rect fill="rgb(26,33,44)" height="247.82608695652175" opacity="1" transform="rotate(5.956315858428942,128.0,128.0)" width="247.82608695652175" x="4.0869565217391255" y="4.0869565217391255" /><rect fill="rgb(28,36,48)" height="243.47826086956522" opacity="1" transform="rotate(6.934436354788597,128.0,128.0)" width="243.47826086956522" x="6.260869565217391" y="6.260869565217391" /><rect fill="rgb(31,39,51)" height="239.1304347826087" opacity="1" transform="rotate(7.986673903685264,128.0,128.0)" width="239.1304347826087" x="8.434782608695656" y="8.434782608695656" /><rect fill="rgb(33,42,55)" height="234.7826086956522" opacity="1" transform="rotate(9.113028505118942,128.0,128.0)" width="234.7826086956522" x="10.608695652173907" y="10.608695652173907" /><rect fill="rgb(36,45,59)" height="230.43478260869566" opacity="1" transform="rotate(10.313500159089633,128.0,128.0)" width="230.43478260869566" x="12.782608695652172" y="12.782608695652172" /><rect fill="rgb(39,48,62)" height="226.08695652173913" opacity="1" transform="rotate(11.588088865597335,128.0,128.0)" width="226.08695652173913" x="14.956521739130437" y="14.956521739130437" /><rect fill="rgb(41,51,66)" height="221.73913043478262" opacity="1" transform="rotate(12.936794624642047,128.0,128.0)" width="221.73913043478262" x="17.13043478260869" y="17.13043478260869" /><rect fill="rgb(44,54,70)" height="217.3913043478261" opacity="1" transform="rotate(14.359617436223772,128.0,128.0)" width="217.3913043478261" x="19.304347826086953" y="19.304347826086953" /><rect fill="rgb(47,58,73)" height="213.04347826086956" opacity="1" transform="rotate(15.856557300342509,128.0,128.0)" width="213.04347826086956" x="21.47826086956522" y="21.47826086956522" /><rect fill="rgb(50,61,77)" height="208.69565217391306" opacity="1" transform="rotate(17.427614216998258,128.0,128.0)" width="208.69565217391306" x="23.65217391304347" y="23.65217391304347" /><rect fill="rgb(53,64,81)" height="204.34782608695653" opacity="1" transform="rotate(19.072788186191016,128.0,128.0)" width="204.34782608695653" x="25.826086956521735" y="25.826086956521735" /><rect fill="rgb(56,68,85)" height="200.0" opacity="1" transform="rotate(20.792079207920793,128.0,128.0)" width="200.0" x="28.0" y="28.0" /><rect fill="rgb(59,71,88)" height="195.6521739130435" opacity="1" transform="rotate(22.58548728218757,128.0,128.0)" width="195.6521739130435" x="30.17391304347825" y="30.17391304347825" /><rect fill="rgb(62,74,92)" height="191.30434782608697" opacity="1" transform="rotate(24.453012408991373,128.0,128.0)" width="191.30434782608697" x="32.347826086956516" y="32.347826086956516" /><rect fill="rgb(66,78,96)" height="186.95652173913044" opacity="1" transform="rotate(26.394654588332173,128.0,128.0)" width="186.95652173913044" x="34.52173913043478" y="34.52173913043478" /><rect fill="rgb(69,81,99)" height="182.60869565217394" opacity="1" transform="rotate(28.410413820209996,128.0,128.0)" width="182.60869565217394" x="36.69565217391303" y="36.69565217391303" /><rect fill="rgb(72,85,103)" height="178.2608695652174" opacity="1" transform="rotate(30.500290104624824,128.0,128.0)" width="178.2608695652174" x="38.8695652173913" y="38.8695652173913" /><rect fill="rgb(76,88,107)" height="173.91304347826087" opacity="1" transform="rotate(32.66428344157667,128.0,128.0)" width="173.91304347826087" x="41.04347826086956" y="41.04347826086956" /><rect fill="rgb(79,92,110)" height="169.56521739130434" opacity="1" transform="rotate(34.902393831065524,128.0,128.0)" width="169.56521739130434" x="43.21739130434783" y="43.21739130434783" /><rect fill="rgb(83,95,114)" height="165.21739130434784" opacity="1" transform="rotate(37.214621273091396,128.0,128.0)" width="165.21739130434784" x="45.39130434782608" y="45.39130434782608" /><rect fill="rgb(86,99,118)" height="160.8695652173913" opacity="1" transform="rotate(39.600965767654266,128.0,128.0)" width="160.8695652173913" x="47.565217391304344" y="47.565217391304344" /><rect fill="rgb(90,102,121)" height="156.52173913043478" opacity="1" transform="rotate(42.061427314754155,128.0,128.0)" width="156.52173913043478" x="49.73913043478261" y="49.73913043478261" /><rect fill="rgb(93,106,125)" height="152.17391304347828" opacity="1" transform="rotate(44.59600591439106,128.0,128.0)" width="152.17391304347828" x="51.91304347826086" y="51.91304347826086" /><rect fill="rgb(97,110,129)" height="147.82608695652175" opacity="1" transform="rotate(47.204701566564964,128.0,128.0)" width="147.82608695652175" x="54.086956521739125" y="54.086956521739125" /><rect fill="rgb(101,113,133)" height="143.47826086956522" opacity="1" transform="rotate(49.8875142712759,128.0,128.0)" width="143.47826086956522" x="56.26086956521739" y="56.26086956521739" /><rect fill="rgb(105,117,136)" height="139.13043478260872" opacity="1" transform="rotate(52.64444402852383,128.0,128.0)" width="139.13043478260872" x="58.43478260869564" y="58.43478260869564" /><rect fill="rgb(108,121,140)" height="134.7826086956522" opacity="1" transform="rotate(55.47549083830879,128.0,128.0)" width="134.7826086956522" x="60.60869565217391" y="60.60869565217391" /><rect fill="rgb(112,125,144)" height="130.43478260869566" opacity="1" transform="rotate(58.380654700630735,128.0,128.0)" width="130.43478260869566" x="62.78260869565217" y="62.78260869565217" /><rect fill="rgb(116,129,147)" height="126.08695652173913" opacity="1" transform="rotate(61.35993561548971,128.0,128.0)" width="126.08695652173913" x="64.95652173913044" y="64.95652173913044" /><rect fill="rgb(120,133,151)" height="121.73913043478262" opacity="1" transform="rotate(64.41333358288568,128.0,128.0)" width="121.73913043478262" x="67.13043478260869" y="67.13043478260869" /><rect fill="rgb(124,136,155)" height="117.3913043478261" opacity="1" transform="rotate(67.54084860281868,128.0,128.0)" width="117.3913043478261" x="69.30434782608695" y="69.30434782608695" /><rect fill="rgb(128,140,158)" height="113.04347826086956" opacity="1" transform="rotate(70.74248067528869,128.0,128.0)" width="113.04347826086956" x="71.47826086956522" y="71.47826086956522" /><rect fill="rgb(133,144,162)" height="108.69565217391306" opacity="1" transform="rotate(74.0182298002957,128.0,128.0)" width="108.69565217391306" x="73.65217391304347" y="73.65217391304347" /><rect fill="rgb(137,148,166)" height="104.34782608695653" opacity="1" transform="rotate(77.36809597783974,128.0,128.0)" width="104.34782608695653" x="75.82608695652173" y="75.82608695652173" /><rect fill="rgb(141,153,170)" height="100.0" opacity="1" transform="rotate(80.79207920792079,128.0,128.0)" width="100.0" x="78.0" y="78.0" /><rect fill="rgb(146,157,173)" height="95.6521739130435" opacity="1" transform="rotate(84.29017949053886,128.0,128.0)" width="95.6521739130435" x="80.17391304347825" y="80.17391304347825" /><rect fill="rgb(150,161,177)" height="91.30434782608697" opacity="1" transform="rotate(87.86239682569389,128.0,128.0)" width="91.30434782608697" x="82.34782608695652" y="82.34782608695652" /><rect fill="rgb(154,165,181)" height="86.95652173913044" opacity="1" transform="rotate(91.50873121338599,128.0,128.0)" width="86.95652173913044" x="84.52173913043478" y="84.52173913043478" /><rect fill="rgb(159,169,184)" height="82.60869565217394" opacity="1" transform="rotate(95.2291826536151,128.0,128.0)" width="82.60869565217394" x="86.69565217391303" y="86.69565217391303" /><rect fill="rgb(163,173,188)" height="78.2608695652174" opacity="1" transform="rotate(99.02375114638116,128.0,128.0)" width="78.2608695652174" x="88.8695652173913" y="88.8695652173913" /><rect fill="rgb(168,177,192)" height="73.91304347826087" opacity="1" transform="rotate(102.89243669168428,128.0,128.0)" width="73.91304347826087" x="91.04347826086956" y="91.04347826086956" /><rect fill="rgb(173,182,195)" height="69.56521739130437" opacity="1" transform="rotate(106.83523928952441,128.0,128.0)" width="69.56521739130437" x="93.21739130434781" y="93.21739130434781" /><rect fill="rgb(177,186,199)" height="65.21739130434784" opacity="1" transform="rotate(110.85215893990156,128.0,128.0)" width="65.21739130434784" x="95.39130434782608" y="95.39130434782608" /><rect fill="rgb(182,190,203)" height="60.86956521739131" opacity="1" transform="rotate(114.94319564281567,128.0,128.0)" width="60.86956521739131" x="97.56521739130434" y="97.56521739130434" /><rect fill="rgb(187,195,206)" height="56.52173913043481" opacity="1" transform="rotate(119.10834939826684,128.0,128.0)" width="56.52173913043481" x="99.7391304347826" y="99.7391304347826" /><rect fill="rgb(192,199,210)" height="52.17391304347828" opacity="1" transform="rotate(123.34762020625502,128.0,128.0)" width="52.17391304347828" x="101.91304347826086" y="101.91304347826086" /><rect fill="rgb(197,204,214)" height="47.82608695652175" opacity="1" transform="rotate(127.66100806678023,128.0,128.0)" width="47.82608695652175" x="104.08695652173913" y="104.08695652173913" /><rect fill="rgb(202,208,218)" height="43.47826086956525" opacity="1" transform="rotate(132.0485129798424,128.0,128.0)" width="43.47826086956525" x="106.26086956521738" y="106.26086956521738" /><rect fill="rgb(207,213,221)" height="39.13043478260869" opacity="1" transform="rotate(136.5101349454416,128.0,128.0)" width="39.13043478260869" x="108.43478260869566" y="108.43478260869566" /><rect fill="rgb(212,217,225)" height="34.782608695652186" opacity="1" transform="rotate(141.04587396357783,128.0,128.0)" width="34.782608695652186" x="110.6086956521739" y="110.6086956521739" /><rect fill="rgb(217,222,229)" height="30.434782608695684" opacity="1" transform="rotate(145.65573003425106,128.0,128.0)" width="30.434782608695684" x="112.78260869565216" y="112.78260869565216" /><rect fill="rgb(222,226,232)" height="26.086956521739125" opacity="1" transform="rotate(150.33970315746126,128.0,128.0)" width="26.086956521739125" x="114.95652173913044" y="114.95652173913044" /><rect fill="rgb(227,231,236)" height="21.739130434782624" opacity="1" transform="rotate(155.09779333320856,128.0,128.0)" width="21.739130434782624" x="117.13043478260869" y="117.13043478260869" /><rect fill="rgb(233,236,240)" height="17.39130434782612" opacity="1" transform="rotate(159.93000056149285,128.0,128.0)" width="17.39130434782612" x="119.30434782608694" y="119.30434782608694" /><rect fill="rgb(238,240,243)" height="13.043478260869563" opacity="1" transform="rotate(164.83632484231407,128.0,128.0)" width="13.043478260869563" x="121.47826086956522" y="121.47826086956522" /><rect fill="rgb(244,245,247)" height="8.69565217391306" opacity="1" transform="rotate(169.81676617567234,128.0,128.0)" width="8.69565217391306" x="123.65217391304347" y="123.65217391304347" /><rect fill="rgb(249,250,251)" height="4.347826086956559" opacity="1" transform="rotate(174.87132456156766,128.0,128.0)" width="4.347826086956559" x="125.82608695652172" y="125.82608695652172" /><rect fill="rgb(255,255,255)" height="0.0" opacity="1" transform="rotate(180.0,128.0,128.0)" width="0.0" x="128.0" y="128.0" /></svg>